<svg width="7455" height="550" viewBox="0 0 7455 550" fill="none" xmlns="http://www.w3.org/2000/svg">
<g clip-path="url(#clip0_1906_849)">
<path d="M6621.86 390.001C6609.07 376.909 6588.04 376.711 6574.95 389.505L6509.78 453.378C6505.42 457.643 6505.52 463.197 6507.01 466.867C6508.5 470.537 6512.26 474.504 6518.41 474.603L6632.97 475C6641.8 475 6649.14 467.859 6649.23 459.032C6649.23 458.536 6649.23 458.04 6649.23 457.643C6649.43 432.451 6639.42 407.953 6621.86 390.001Z" fill="#5756CE"/>
<path d="M6532.99 374.43C6533.19 356.18 6518.41 341.105 6500.16 340.906L6409.02 340.014C6402.87 339.914 6399.1 343.882 6397.51 347.551C6395.92 351.221 6395.83 356.775 6400.09 361.04L6480.82 442.27C6487.07 448.518 6497.29 448.618 6503.64 442.468C6503.93 442.171 6504.33 441.774 6504.63 441.476C6522.48 424.02 6532.8 399.523 6532.99 374.43Z" fill="#5756CE"/>
<path d="M6481.22 300.639C6494.31 287.844 6494.51 266.818 6481.72 253.726L6417.84 188.563C6413.58 184.199 6408.03 184.298 6404.36 185.786C6400.69 187.274 6396.72 191.043 6396.62 197.192L6396.22 311.846C6396.22 320.673 6403.36 328.013 6412.19 328.112C6412.69 328.112 6413.18 328.112 6413.58 328.112C6438.67 328.211 6463.27 318.194 6481.22 300.639Z" fill="#5756CE"/>
<path d="M6570.48 159.999C6583.28 173.091 6604.31 173.289 6617.4 160.495L6682.56 96.6216C6686.92 92.3568 6686.82 86.8026 6685.34 83.1329C6683.85 79.4632 6680.08 75.4959 6673.93 75.3967L6559.38 75C6550.55 75 6543.21 82.1411 6543.11 90.9683C6543.11 91.4642 6543.11 91.9601 6543.11 92.3568C6543.01 117.549 6552.93 142.047 6570.48 159.999Z" fill="#5756CE"/>
<path d="M6659.35 175.57C6659.16 193.819 6673.93 208.895 6692.18 209.093L6783.33 209.986C6789.48 210.085 6793.25 206.118 6794.84 202.448C6796.42 198.778 6796.52 193.224 6792.26 188.959L6711.52 107.531C6705.27 101.283 6695.06 101.184 6688.71 107.333C6688.41 107.63 6688.02 108.027 6687.72 108.325C6669.97 125.979 6659.65 150.378 6659.35 175.57Z" fill="#5756CE"/>
<path d="M6711.22 249.361C6698.13 262.156 6697.93 283.182 6710.73 296.274L6774.6 361.437C6778.86 365.801 6784.42 365.702 6788.09 364.214C6791.76 362.726 6795.73 358.957 6795.82 352.808L6796.22 238.253C6796.22 229.426 6789.08 222.086 6780.25 221.987C6779.76 221.987 6779.26 221.987 6778.86 221.987C6753.67 221.789 6729.08 231.707 6711.22 249.361Z" fill="#5756CE"/>
<path d="M6695.65 338.13C6677.4 337.932 6662.33 352.71 6662.13 370.959L6661.24 462.107C6661.14 468.256 6665.1 472.025 6668.77 473.612C6672.44 475.199 6678 475.298 6682.26 471.033L6763.49 390.3C6769.74 384.051 6769.84 373.835 6763.69 367.488C6763.39 367.19 6763 366.793 6762.7 366.496C6745.14 348.742 6720.75 338.427 6695.65 338.13Z" fill="#5756CE"/>
<path d="M6519.6 132.426V125.582C6519.6 108.92 6506.41 95.0341 6489.75 94.8358C6472.79 94.5382 6458.9 108.325 6458.9 125.185V132.525C6449.08 136.294 6442.04 145.815 6442.04 157.023V174.181C6442.04 188.662 6453.75 200.365 6468.23 200.365H6477.05C6478.64 200.365 6480.03 199.175 6480.43 197.588L6484.29 171.305C6484.39 170.611 6484.1 169.916 6483.5 169.52C6479.83 167.338 6477.55 163.271 6478.05 158.61C6478.64 153.452 6482.71 149.386 6487.86 148.791C6494.61 147.997 6500.46 153.353 6500.46 159.899C6500.46 163.965 6498.28 167.536 6495.01 169.52C6494.41 169.916 6494.11 170.611 6494.21 171.305L6498.08 197.588C6498.38 199.175 6499.77 200.365 6501.45 200.365H6510.28C6524.76 200.365 6536.46 188.662 6536.46 174.181V156.924C6536.36 145.716 6529.42 136.195 6519.6 132.426ZM6512.86 130.839C6511.97 130.74 6511.07 130.74 6510.28 130.74H6468.33C6467.43 130.74 6466.54 130.74 6465.75 130.839V125.086C6465.75 111.895 6476.56 101.283 6489.75 101.481C6502.64 101.679 6512.86 112.589 6512.86 125.483V130.839Z" fill="#5756CE"/>
<path d="M6974.65 174.479C6974.65 192.728 6961.16 205.523 6942.42 205.523C6924.66 205.523 6909.98 194.018 6909.98 171.206V160.097C6909.98 138.178 6920.6 122.309 6940.23 118.54L6969.3 114.97V126.673L6943.01 129.847C6931.11 132.227 6923.87 139.864 6923.18 155.634C6927.74 146.609 6936.47 144.228 6944.6 144.228C6961.96 144.129 6974.65 156.428 6974.65 174.479ZM6961.36 174.38C6961.36 163.47 6953.53 155.535 6942.52 155.535C6931.41 155.535 6923.57 163.37 6923.57 174.38C6923.57 185.587 6931.41 193.323 6942.52 193.323C6953.43 193.323 6961.36 185.587 6961.36 174.38Z" fill="#29374A"/>
<path d="M7045.47 178.049C7045.47 176.065 7045.47 174.28 7045.37 172.395C7043.88 152.361 7031.18 141.352 7013.93 141.352C6995.58 141.352 6982.39 155.237 6982.39 173.586C6982.39 192.827 6996.17 205.621 7014.92 205.621C7028.8 205.621 7039.81 197.488 7043.58 187.074H7030.39C7027.32 191.141 7022.26 194.315 7015.02 194.315C7004.8 194.315 6996.87 187.669 6996.07 178.049H7045.47ZM6996.07 167.734C6996.77 158.907 7004.21 152.46 7013.93 152.46C7024.04 152.46 7031.08 159.006 7031.48 167.734H6996.07Z" fill="#29374A"/>
<path d="M7050.03 192.728C7054.79 192.529 7059.75 189.852 7059.75 180.033V142.74H7108.25V204.53H7094.76V154.94H7072.94V180.33C7072.94 197.489 7062.82 205.225 7049.83 204.927L7050.03 192.728Z" fill="#29374A"/>
<path d="M7145.14 171.503L7174.7 142.74H7159.03L7142.66 158.609L7133.44 167.536V142.74H7133.24H7120.74H7119.95V204.53H7120.74H7133.24H7133.44V175.47L7142.56 185.686L7159.13 204.53H7174.8L7145.14 171.503Z" fill="#29374A"/>
<path d="M7228.56 142.641L7226.87 151.865C7221.61 145.418 7212.49 141.451 7204.26 141.451C7204.16 141.451 7204.06 141.451 7203.96 141.451C7203.86 141.451 7203.66 141.451 7203.56 141.451C7194.64 141.451 7187.4 144.724 7182.14 149.981C7181.84 150.278 7181.64 150.477 7181.35 150.774C7181.25 150.973 7181.05 151.072 7180.95 151.27C7175.99 156.924 7173.11 164.66 7173.11 173.487V173.586V173.685C7173.11 182.512 7175.89 190.249 7180.95 195.902C7181.05 196.1 7181.25 196.199 7181.35 196.398C7181.54 196.695 7181.84 196.894 7182.14 197.191C7187.3 202.547 7194.64 205.721 7203.56 205.721C7203.66 205.721 7203.86 205.721 7203.96 205.721C7204.06 205.721 7204.16 205.721 7204.26 205.721C7212.49 205.721 7221.61 201.853 7226.87 195.307V204.531H7240.56V204.432V142.741V142.641H7228.56ZM7207.03 193.323C7195.33 193.323 7187 185.091 7187 173.586C7187 162.081 7195.33 153.849 7207.03 153.849C7218.54 153.849 7226.77 162.379 7226.77 173.586C7226.77 184.794 7218.54 193.323 7207.03 193.323Z" fill="#29374A"/>
<path d="M7252.26 142.641V142.741V232.202V232.302H7265.95V195.307C7271.21 201.754 7280.33 205.721 7288.56 205.721C7288.66 205.721 7288.76 205.721 7288.86 205.721C7288.96 205.721 7289.16 205.721 7289.26 205.721C7298.18 205.721 7305.42 202.448 7310.68 197.191C7310.98 196.894 7311.18 196.695 7311.47 196.398C7311.57 196.199 7311.77 196.1 7311.87 195.902C7316.83 190.249 7319.71 182.512 7319.71 173.685V173.586V173.487C7319.71 164.66 7316.93 156.924 7311.87 151.27C7311.77 151.072 7311.57 150.973 7311.47 150.774C7311.27 150.477 7310.98 150.278 7310.68 149.981C7305.52 144.625 7298.18 141.451 7289.26 141.451C7289.16 141.451 7288.96 141.451 7288.86 141.451C7288.76 141.451 7288.66 141.451 7288.56 141.451C7280.33 141.451 7271.21 145.319 7265.95 151.865L7264.26 142.641H7252.26ZM7266.05 173.586C7266.05 162.379 7274.28 153.849 7285.79 153.849C7297.49 153.849 7305.82 162.081 7305.82 173.586C7305.82 185.091 7297.49 193.323 7285.79 193.323C7274.28 193.323 7266.05 184.794 7266.05 173.586Z" fill="#29374A"/>
<path d="M7421.56 165.949V204.531H7407.97V169.42C7407.97 158.213 7402.22 153.254 7394.58 153.254C7386.75 153.254 7380.8 158.51 7380.8 169.42V204.531H7367.21V169.42C7367.21 158.213 7361.36 153.254 7354.02 153.254C7345.99 153.254 7340.03 158.51 7340.03 169.42V204.531H7326.35V142.741H7338.35L7339.94 151.667C7343.51 145.319 7349.46 141.451 7358.58 141.451C7366.91 141.451 7373.76 144.923 7377.43 151.667C7381.49 145.319 7388.24 141.451 7398.25 141.451C7412.14 141.451 7421.56 150.774 7421.56 165.949Z" fill="#29374A"/>
<path d="M6956.8 251.444H6967.71V312.044H6955.7V271.876L6922.78 312.044H6911.67V251.444H6923.67V292.307L6956.8 251.444Z" fill="#29374A"/>
<path d="M7021.76 251.444H7033.76V312.044H7021.76V290.224H6991.31V312.044H6979.31V251.444H6991.31V277.529H7021.76V251.444Z" fill="#29374A"/>
<path d="M7397.46 311.945V262.056H7378.02V251.345H7429.89V262.056H7410.65V311.945H7397.46Z" fill="#29374A"/>
<path d="M7159.32 286.158C7159.32 284.274 7159.32 282.389 7159.22 280.703C7157.74 261.065 7145.34 250.354 7128.48 250.354C7110.53 250.354 7097.63 263.941 7097.63 281.893C7097.63 300.738 7111.12 313.235 7129.47 313.235C7143.06 313.235 7153.77 305.3 7157.54 295.084H7144.64C7141.67 299.151 7136.61 302.126 7129.57 302.126C7119.55 302.126 7111.82 295.58 7111.02 286.158H7159.32ZM7111.02 276.042C7111.72 267.413 7119.06 261.164 7128.58 261.164C7138.5 261.164 7145.44 267.611 7145.74 276.042H7111.02Z" fill="#29374A"/>
<path d="M7374.15 286.158C7374.15 284.274 7374.15 282.389 7374.05 280.703C7372.57 261.065 7360.17 250.354 7343.31 250.354C7325.35 250.354 7312.46 263.941 7312.46 281.893C7312.46 300.738 7325.95 313.235 7344.3 313.235C7357.89 313.235 7368.6 305.3 7372.37 295.084H7359.47C7356.5 299.151 7351.44 302.126 7344.4 302.126C7334.38 302.126 7326.64 295.58 7325.85 286.158H7374.15ZM7325.75 276.042C7326.45 267.413 7333.78 261.164 7343.31 261.164C7353.22 261.164 7360.17 267.611 7360.46 276.042H7325.75Z" fill="#29374A"/>
<path d="M7290.25 251.444H7302.25V312.044H7290.25V290.224H7259.8V312.044H7247.8V251.444H7259.8V277.529H7290.25V251.444Z" fill="#29374A"/>
<path d="M7062.13 311.945V262.056H7042.69V251.345H7094.56V262.056H7075.32V311.945H7062.13Z" fill="#29374A"/>
<path d="M7170.83 250.75V250.849V338.625V338.724H7184.22V302.423C7189.38 308.771 7198.4 312.639 7206.43 312.639C7206.53 312.639 7206.63 312.639 7206.73 312.639C7206.83 312.639 7207.03 312.639 7207.13 312.639C7215.86 312.639 7223 309.465 7228.16 304.209C7228.35 304.01 7228.65 303.713 7228.85 303.514C7228.95 303.316 7229.15 303.217 7229.25 303.019C7234.21 297.464 7236.88 289.927 7236.88 281.199V281.099V281C7236.88 272.371 7234.11 264.734 7229.25 259.18C7229.15 258.982 7228.95 258.883 7228.85 258.684C7228.65 258.387 7228.35 258.188 7228.16 257.99C7223.1 252.733 7215.96 249.56 7207.13 249.56C7207.03 249.56 7206.83 249.56 7206.73 249.56C7206.63 249.56 7206.53 249.56 7206.43 249.56C7198.4 249.56 7189.47 253.328 7184.22 259.775L7182.63 250.75H7170.83ZM7184.42 281.099C7184.42 270.09 7192.45 261.759 7203.86 261.759C7215.26 261.759 7223.49 269.793 7223.49 281.099C7223.49 292.406 7215.36 300.44 7203.86 300.44C7192.45 300.539 7184.42 292.109 7184.42 281.099Z" fill="#29374A"/>
<path d="M6967.41 359.949V420.549H6953.82V370.661H6925.35V420.549H6911.77V359.949H6967.41Z" fill="#29374A"/>
<path d="M7297.68 378.793C7311.96 378.793 7321.58 386.728 7321.58 399.721C7321.58 412.813 7311.86 420.648 7297.68 420.648H7272.79V360.048H7284.79V378.793H7297.68ZM7296.09 409.242C7303.43 409.242 7309.58 405.969 7309.58 399.721C7309.58 393.373 7303.53 390.001 7296.09 390.001H7284.69V409.242H7296.09Z" fill="#29374A"/>
<path d="M7031.68 360.247L7030.09 369.173C7024.93 362.826 7016 359.057 7007.97 359.057C7007.87 359.057 7007.77 359.057 7007.67 359.057C7007.57 359.057 7007.38 359.057 7007.28 359.057C6998.55 359.057 6991.51 362.23 6986.35 367.388C6986.15 367.586 6985.85 367.884 6985.65 368.082C6985.56 368.281 6985.36 368.38 6985.26 368.578C6980.4 374.132 6977.62 381.67 6977.62 390.299V390.398V390.497C6977.62 399.126 6980.4 406.664 6985.26 412.218C6985.36 412.416 6985.56 412.516 6985.65 412.714C6985.85 413.012 6986.15 413.21 6986.35 413.408C6991.41 418.566 6998.55 421.739 7007.28 421.739C7007.38 421.739 7007.57 421.739 7007.67 421.739C7007.77 421.739 7007.87 421.739 7007.97 421.739C7016 421.739 7024.93 417.971 7030.09 411.623V420.549H7043.48V420.45V360.247V360.148H7031.68V360.247ZM7010.65 409.739C6999.24 409.739 6991.11 401.705 6991.11 390.398C6991.11 379.091 6999.24 371.058 7010.65 371.058C7021.96 371.058 7029.99 379.389 7029.99 390.398C7029.99 401.407 7021.86 409.739 7010.65 409.739Z" fill="#29374A"/>
<path d="M7057.07 359.354V359.453V447.229V447.328H7070.46V411.028C7075.61 417.376 7084.64 421.244 7092.67 421.244C7092.77 421.244 7092.87 421.244 7092.97 421.244C7093.07 421.244 7093.27 421.244 7093.37 421.244C7102.09 421.244 7109.24 418.07 7114.39 412.813C7114.59 412.615 7114.89 412.317 7115.09 412.119C7115.19 411.921 7115.39 411.821 7115.48 411.623C7120.44 406.069 7123.12 398.531 7123.12 389.803V389.704V389.605C7123.12 380.976 7120.34 373.339 7115.48 367.785C7115.39 367.586 7115.19 367.487 7115.09 367.289C7114.89 366.991 7114.59 366.793 7114.39 366.595C7109.34 361.338 7102.19 358.164 7093.37 358.164C7093.27 358.164 7093.07 358.164 7092.97 358.164C7092.87 358.164 7092.77 358.164 7092.67 358.164C7084.64 358.164 7075.71 361.933 7070.46 368.38L7068.87 359.354H7057.07ZM7070.56 389.704C7070.56 378.695 7078.59 370.363 7089.99 370.363C7101.4 370.363 7109.63 378.397 7109.63 389.704C7109.63 401.011 7101.5 409.044 7089.99 409.044C7078.69 409.143 7070.56 400.713 7070.56 389.704Z" fill="#29374A"/>
<path d="M7203.26 409.441C7208.02 409.243 7212.98 406.565 7212.98 396.845V359.851H7261.08V421.145H7247.69V371.951H7226.07V397.143C7226.07 414.103 7216.05 421.839 7203.16 421.542L7203.26 409.441Z" fill="#29374A"/>
<path d="M7163.69 358.66C7145.04 358.66 7131.25 372.05 7131.25 390.2C7131.25 408.35 7145.04 421.74 7163.69 421.74C7182.43 421.74 7196.12 408.449 7196.12 390.2C7196.12 372.149 7182.43 358.66 7163.69 358.66ZM7163.69 409.64C7152.68 409.64 7144.54 401.407 7144.54 390.2C7144.54 379.092 7152.68 370.76 7163.69 370.76C7174.79 370.76 7182.83 378.992 7182.83 390.2C7182.83 401.407 7174.79 409.64 7163.69 409.64Z" fill="#29374A"/>
</g>
<g clip-path="url(#clip1_1906_849)">
<path d="M5241.37 291.482C5241.37 334.469 5209.62 364.8 5165.21 364.8C5123.33 364.8 5088.76 337.551 5088.76 283.891V257.479C5088.76 205.786 5113.78 168.221 5160.14 159.515L5228.64 151.011V178.538L5166.6 185.912C5138.5 191.535 5121.35 209.489 5119.66 246.853C5130.34 225.506 5151.14 219.821 5170.26 219.821C5211.31 219.837 5241.37 248.773 5241.37 291.482ZM5209.9 291.203C5209.9 265.364 5191.35 246.822 5165.5 246.822C5139.37 246.822 5120.82 265.364 5120.82 291.203C5120.82 317.615 5139.37 335.863 5165.5 335.863C5191.35 335.863 5209.9 317.599 5209.9 291.203Z" fill="#002E8D"/>
<path d="M5408.58 299.908C5408.69 295.307 5408.58 290.908 5408.27 286.663C5404.69 239.401 5374.73 213.376 5334.16 213.376C5290.82 213.376 5259.75 246.232 5259.75 289.513C5259.75 334.995 5292.2 365.078 5336.43 365.078C5369.11 365.078 5395.11 345.962 5404.11 321.409H5373.08C5365.92 331.106 5353.81 338.403 5336.69 338.403C5312.62 338.403 5293.89 322.648 5291.92 299.908H5408.58ZM5291.95 275.463C5293.61 254.69 5311.25 239.509 5334.18 239.509C5357.99 239.509 5374.75 254.953 5375.6 275.463H5291.95Z" fill="#002E8D"/>
<path d="M5419.38 334.453C5430.63 333.895 5442.42 327.714 5442.42 304.401V216.475H5556.88V362.274H5525.12V245.133H5473.63V304.974C5473.63 345.42 5449.74 363.684 5419.1 363.126L5419.38 334.453Z" fill="#002E8D"/>
<path d="M5643.65 284.464L5713.53 216.459H5676.54L5637.91 253.962L5616.16 275.076V216.459H5615.66H5586.26H5584.39V362.259H5586.26H5615.66H5616.16V293.882L5637.57 317.97L5676.84 362.259H5713.8L5643.65 284.464Z" fill="#002E8D"/>
<path d="M5840.61 216.321L5836.75 237.977C5824.23 222.673 5802.72 213.502 5783.35 213.502C5783.12 213.502 5782.92 213.533 5782.69 213.533C5782.35 213.533 5782.02 213.502 5781.66 213.502C5760.61 213.502 5743.48 221.201 5731.21 233.733C5730.62 234.322 5730 234.91 5729.43 235.514C5729.09 235.886 5728.76 236.304 5728.44 236.692C5716.62 250.06 5710 268.262 5710 289.066C5710 289.159 5710.02 289.252 5710.02 289.345C5710.02 289.438 5710 289.531 5710 289.624C5710 310.428 5716.62 328.645 5728.44 341.999C5728.78 342.386 5729.09 342.789 5729.43 343.176C5730 343.795 5730.62 344.369 5731.21 344.957C5743.48 357.489 5760.61 365.188 5781.66 365.188C5782.01 365.188 5782.35 365.157 5782.69 365.157C5782.92 365.157 5783.12 365.188 5783.35 365.188C5802.72 365.188 5824.23 356.018 5836.75 340.713V362.369H5869.06V362.09V216.616V216.337H5840.61V216.321ZM5789.81 336.004C5762.27 336.004 5742.6 316.625 5742.6 289.376C5742.6 262.128 5762.27 242.749 5789.81 242.749C5817.08 242.749 5836.47 262.98 5836.47 289.376C5836.47 315.773 5817.08 336.004 5789.81 336.004Z" fill="#002E8D"/>
<path d="M5896.51 216.321V216.6V427.756V428.035H5928.83V340.728C5941.34 356.033 5962.86 365.204 5982.22 365.204C5982.45 365.204 5982.66 365.173 5982.89 365.173C5983.23 365.173 5983.55 365.204 5983.91 365.204C6004.96 365.204 6022.1 357.505 6034.36 344.973C6034.95 344.384 6035.57 343.796 6036.15 343.191C6036.49 342.82 6036.81 342.401 6037.14 342.014C6048.96 328.646 6055.57 310.444 6055.57 289.64C6055.57 289.547 6055.56 289.454 6055.56 289.361C6055.56 289.268 6055.57 289.175 6055.57 289.082C6055.57 268.278 6048.96 250.06 6037.14 236.707C6036.8 236.32 6036.49 235.917 6036.15 235.53C6035.57 234.91 6034.95 234.337 6034.36 233.749C6022.1 221.217 6004.96 213.518 5983.91 213.518C5983.57 213.518 5983.23 213.549 5982.89 213.549C5982.66 213.549 5982.45 213.518 5982.22 213.518C5962.86 213.518 5941.34 222.688 5928.83 237.993L5924.97 216.337H5896.51V216.321ZM5929.12 289.361C5929.12 262.949 5948.51 242.733 5975.78 242.733C6003.32 242.733 6022.99 262.112 6022.99 289.361C6022.99 316.609 6003.32 335.988 5975.78 335.988C5948.51 336.004 5929.12 315.773 5929.12 289.361Z" fill="#002E8D"/>
<path d="M6296.22 271.328V362.461H6264.14V279.477C6264.14 253.034 6250.63 241.214 6232.62 241.214C6214.05 241.214 6199.98 253.591 6199.98 279.477V362.461H6167.9V279.477C6167.9 253.034 6154.11 241.214 6136.65 241.214C6117.8 241.214 6103.74 253.591 6103.74 279.477V362.461H6071.38V216.475H6099.6L6103.26 237.527C6111.7 222.625 6125.69 213.393 6147.36 213.393C6167.05 213.393 6183.19 221.494 6191.91 237.527C6201.48 222.625 6217.42 213.393 6241.06 213.393C6274 213.377 6296.22 235.606 6296.22 271.328Z" fill="#002E8D"/>
<path d="M4801.31 375.241L4744.32 431.132C4740.49 434.881 4740.55 439.683 4741.87 442.936C4743.19 446.189 4746.52 449.659 4751.86 449.675L4852.15 450C4859.87 450.031 4866.26 443.773 4866.4 436.043C4866.4 435.64 4866.42 435.222 4866.42 434.803C4866.48 412.837 4857.76 391.336 4842.38 375.644C4831.15 364.212 4812.74 364.026 4801.31 375.241Z" fill="#32A8FF"/>
<path d="M4735.88 332.734L4656.05 331.959C4650.71 331.913 4647.35 335.336 4645.98 338.574C4644.62 341.812 4644.51 346.614 4648.28 350.409L4718.96 421.543C4724.4 427.011 4733.35 427.104 4738.9 421.76C4739.19 421.481 4739.49 421.187 4739.78 420.892C4755.37 405.402 4764.4 384.04 4764.61 362.058C4764.77 346.041 4751.88 332.889 4735.88 332.734Z" fill="#32A8FF"/>
<path d="M4658.86 321.488C4659.27 321.488 4659.68 321.503 4660.1 321.503C4682.06 321.565 4703.56 312.844 4719.25 297.461C4730.69 286.261 4730.86 267.843 4719.66 256.411L4663.77 199.42C4660.02 195.594 4655.22 195.656 4651.96 196.972C4648.71 198.289 4645.24 201.62 4645.22 206.964L4644.9 307.236C4644.87 314.951 4651.13 321.348 4658.86 321.488Z" fill="#32A8FF"/>
<path d="M4674 194.881C4689.49 210.465 4710.85 219.496 4732.84 219.713C4748.84 219.868 4761.99 206.979 4762.15 190.977L4762.92 111.153C4762.97 105.809 4759.54 102.447 4756.3 101.084C4753.07 99.7208 4748.27 99.6123 4744.47 103.377L4673.35 174.061C4667.88 179.499 4667.79 188.452 4673.13 193.998C4673.43 194.292 4673.71 194.587 4674 194.881Z" fill="#32A8FF"/>
<path d="M4838.47 174.759L4895.46 118.868C4899.29 115.119 4899.23 110.317 4897.91 107.064C4896.59 103.811 4893.26 100.341 4887.92 100.325L4787.65 100C4779.93 99.9691 4773.53 106.227 4773.39 113.957C4773.39 114.376 4773.38 114.778 4773.38 115.197C4773.32 137.163 4782.04 158.664 4797.42 174.356C4808.64 185.788 4827.06 185.959 4838.47 174.759Z" fill="#32A8FF"/>
<path d="M4903.92 217.25L4983.74 218.025C4989.09 218.071 4992.45 214.648 4993.81 211.41C4995.17 208.173 4995.28 203.371 4991.52 199.575L4920.83 128.441C4915.4 122.973 4906.44 122.88 4900.9 128.224C4900.6 128.503 4900.31 128.798 4900.01 129.092C4884.43 144.583 4875.4 165.945 4875.18 187.926C4875.01 203.959 4887.91 217.095 4903.92 217.25Z" fill="#32A8FF"/>
<path d="M4980.94 228.497C4980.52 228.497 4980.12 228.482 4979.7 228.482C4957.73 228.42 4936.23 237.141 4920.54 252.524C4909.11 263.723 4908.94 282.142 4920.14 293.574L4976.03 350.565C4979.78 354.391 4984.58 354.329 4987.83 353.013C4991.09 351.696 4994.56 348.365 4994.57 343.021L4994.9 242.733C4994.91 235.034 4988.65 228.637 4980.94 228.497Z" fill="#32A8FF"/>
<path d="M4965.78 355.118C4950.29 339.535 4928.92 330.503 4906.94 330.287C4890.94 330.132 4877.79 343.02 4877.63 359.022L4876.86 438.846C4876.81 444.191 4880.24 447.552 4883.47 448.915C4886.71 450.279 4891.51 450.387 4895.31 446.623L4966.44 375.938C4971.91 370.501 4972 361.547 4966.66 356.001C4966.37 355.707 4966.07 355.397 4965.78 355.118Z" fill="#32A8FF"/>
</g>
<g clip-path="url(#clip2_1906_849)">
<path d="M3547.82 117.763H3372.82V432.242H3547.82V117.763Z" fill="#FF5F00"/>
<path d="M3383.94 275C3383.91 244.713 3390.77 214.817 3404.01 187.575C3417.24 160.333 3436.5 136.459 3460.32 117.76C3430.82 94.5692 3395.39 80.1471 3358.07 76.1422C3320.76 72.1374 3283.07 78.7114 3249.32 95.1128C3215.57 111.514 3187.11 137.081 3167.2 168.892C3147.29 200.702 3136.73 237.473 3136.73 275C3136.73 312.527 3147.29 349.298 3167.2 381.108C3187.11 412.919 3215.57 438.486 3249.32 454.887C3283.07 471.289 3320.76 477.863 3358.07 473.858C3395.39 469.853 3430.82 455.431 3460.32 432.24C3436.5 413.541 3417.24 389.667 3404.01 362.425C3390.77 335.183 3383.91 305.287 3383.94 275Z" fill="#EB001B"/>
<path d="M3783.9 275C3783.91 312.527 3773.35 349.297 3753.44 381.107C3733.53 412.918 3705.07 438.485 3671.32 454.887C3637.57 471.288 3599.88 477.862 3562.57 473.857C3525.26 469.853 3489.82 455.431 3460.32 432.24C3484.12 413.522 3503.37 389.644 3516.6 362.406C3529.83 335.168 3536.71 305.282 3536.71 275C3536.71 244.718 3529.83 214.831 3516.6 187.594C3503.37 160.356 3484.12 136.478 3460.32 117.76C3489.82 94.5691 3525.26 80.147 3562.57 76.1422C3599.88 72.1374 3637.57 78.7115 3671.32 95.1131C3705.07 111.515 3733.53 137.082 3753.44 168.892C3773.35 200.703 3783.91 237.473 3783.9 275Z" fill="#F79E1B"/>
<path d="M3764.84 398.93V392.491H3767.43V391.18H3760.82V392.491H3763.42V398.93H3764.84ZM3777.67 398.93V391.167H3775.65L3773.31 396.506L3770.98 391.167H3768.95V398.93H3770.39V393.074L3772.57 398.122H3774.06L3776.24 393.061V398.93H3777.67Z" fill="#F79E1B"/>
</g>
<g clip-path="url(#clip3_1906_849)">
<path d="M2586.73 499.996H3036.73V50.0007H2586.73V499.996Z" fill="white"/>
<path d="M2586.73 499.996H3036.73V274.998H2586.73V499.996Z" fill="#1434CB"/>
<mask id="mask0_1906_849" style="mask-type:luminance" maskUnits="userSpaceOnUse" x="2586" y="50" width="451" height="450">
<path d="M2586.73 50H3036.73V500H2586.73V50Z" fill="white"/>
</mask>
<g mask="url(#mask0_1906_849)">
<path d="M2801.98 112.911L2780.37 213.959H2754.23L2775.84 112.911H2801.98ZM2911.97 178.159L2925.73 140.213L2933.64 178.159H2911.97ZM2941.14 213.959H2965.32L2944.2 112.911H2921.9C2916.88 112.911 2912.64 115.824 2910.76 120.318L2871.54 213.959H2898.99L2904.44 198.868H2937.98L2941.14 213.959ZM2872.9 180.97C2873.01 154.302 2836.03 152.824 2836.28 140.909C2836.36 137.288 2839.82 133.431 2847.37 132.445C2851.11 131.963 2861.44 131.572 2873.15 136.968L2877.73 115.531C2871.44 113.256 2863.35 111.065 2853.28 111.065C2827.43 111.065 2809.25 124.793 2809.11 144.465C2808.94 159.013 2822.09 167.124 2831.98 171.97C2842.18 176.922 2845.59 180.097 2845.54 184.522C2845.47 191.302 2837.41 194.304 2829.91 194.418C2816.76 194.622 2809.14 190.863 2803.06 188.031L2798.32 210.184C2804.43 212.984 2815.71 215.42 2827.38 215.545C2854.86 215.545 2872.82 201.979 2872.9 180.97ZM2764.63 112.911L2722.27 213.959H2694.64L2673.8 133.315C2672.53 128.356 2671.43 126.534 2667.59 124.438C2661.3 121.024 2650.93 117.831 2641.8 115.845L2642.42 112.911H2686.9C2692.57 112.911 2697.66 116.681 2698.96 123.209L2709.97 181.686L2737.17 112.911H2764.63Z" fill="#1434CB"/>
<path d="M2691.57 399.614C2694.52 401.358 2699.14 402.871 2703.91 402.871C2709.81 402.871 2713.14 400.069 2713.14 395.905C2713.14 392.044 2710.57 389.773 2704.13 387.428C2695.65 384.473 2690.28 379.933 2690.28 372.664C2690.28 364.26 2697.24 357.978 2708.37 357.978C2713.9 357.978 2717.91 359.189 2720.56 360.476L2718.37 368.046C2716.47 367.062 2712.92 365.623 2708.15 365.623C2702.24 365.623 2699.74 368.728 2699.74 371.755C2699.74 375.694 2702.69 377.508 2709.51 380.083C2718.37 383.489 2722.6 387.958 2722.6 395.223C2722.6 403.476 2716.4 410.517 2703.3 410.517C2697.85 410.517 2692.25 409.003 2689.45 407.337L2691.57 399.614Z" fill="white"/>
<path d="M2758.79 387.121H2739.57V402.112H2761.07V409.758H2730.25V358.733H2759.93V366.378H2739.57V379.551H2758.79V387.121Z" fill="white"/>
<path d="M2805.06 408.244C2802.86 409.303 2798.02 410.515 2791.81 410.515C2775.61 410.515 2765.77 400.369 2765.77 384.851C2765.77 368.046 2777.5 357.976 2793.1 357.976C2799.23 357.976 2803.55 359.187 2805.44 360.171L2803.47 367.59C2801.05 366.531 2797.64 365.621 2793.48 365.621C2783.11 365.621 2775.61 372.133 2775.61 384.396C2775.61 395.603 2782.12 402.717 2793.4 402.717C2797.11 402.717 2801.05 401.96 2803.55 400.901L2805.06 408.244Z" fill="white"/>
<path d="M2821.49 358.733V388.485C2821.49 398.478 2825.66 403.097 2831.94 403.097C2838.68 403.097 2842.69 398.478 2842.69 388.485V358.733H2852V387.878C2852 403.626 2843.9 410.59 2831.64 410.59C2819.83 410.59 2812.18 404.006 2812.18 387.956V358.733H2821.49Z" fill="white"/>
<path d="M2871.16 381.975H2876.69C2882.97 381.975 2886.83 378.643 2886.83 373.572C2886.83 368.045 2882.97 365.395 2876.92 365.395C2873.96 365.395 2872.07 365.622 2871.16 365.85V381.975ZM2861.93 359.488C2865.48 358.809 2870.63 358.354 2876.01 358.354C2883.35 358.354 2888.27 359.566 2891.75 362.443C2894.55 364.788 2896.14 368.347 2896.14 372.741C2896.14 379.325 2891.68 383.791 2886.83 385.457V385.684C2890.54 387.045 2892.74 390.604 2893.95 395.525C2895.62 401.886 2896.98 407.788 2897.96 409.759H2888.43C2887.67 408.245 2886.38 404.082 2885.02 397.722C2883.5 391.059 2881.15 388.938 2875.86 388.788H2871.16V409.759H2861.93V359.488Z" fill="white"/>
<path d="M2932.8 387.121H2913.57V402.112H2935.07V409.758H2904.26V358.733H2933.93V366.378H2913.57V379.551H2932.8V387.121Z" fill="white"/>
</g>
<path d="M2586.73 499.996H3036.73V50.0007H2586.73V499.996Z" fill="white"/>
<path d="M2586.73 499.996H3036.73V274.998H2586.73V499.996Z" fill="#1434CB"/>
<mask id="mask1_1906_849" style="mask-type:luminance" maskUnits="userSpaceOnUse" x="2586" y="50" width="451" height="450">
<path d="M2586.73 50H3036.73V500H2586.73V50Z" fill="white"/>
</mask>
<g mask="url(#mask1_1906_849)">
<path d="M2801.98 112.911L2780.37 213.959H2754.23L2775.84 112.911H2801.98ZM2911.97 178.159L2925.73 140.213L2933.64 178.159H2911.97ZM2941.14 213.959H2965.32L2944.2 112.911H2921.9C2916.88 112.911 2912.64 115.824 2910.76 120.318L2871.54 213.959H2898.99L2904.44 198.868H2937.98L2941.14 213.959ZM2872.9 180.97C2873.01 154.302 2836.03 152.824 2836.28 140.909C2836.36 137.288 2839.82 133.431 2847.37 132.445C2851.11 131.963 2861.44 131.572 2873.15 136.968L2877.73 115.531C2871.44 113.256 2863.35 111.065 2853.28 111.065C2827.43 111.065 2809.25 124.793 2809.11 144.465C2808.94 159.013 2822.09 167.124 2831.98 171.97C2842.18 176.922 2845.59 180.097 2845.54 184.522C2845.47 191.302 2837.41 194.304 2829.91 194.418C2816.76 194.622 2809.14 190.863 2803.06 188.031L2798.32 210.184C2804.43 212.984 2815.71 215.42 2827.38 215.545C2854.86 215.545 2872.82 201.979 2872.9 180.97ZM2764.63 112.911L2722.27 213.959H2694.64L2673.8 133.315C2672.53 128.356 2671.43 126.534 2667.59 124.438C2661.3 121.024 2650.93 117.831 2641.8 115.845L2642.42 112.911H2686.9C2692.57 112.911 2697.66 116.681 2698.96 123.209L2709.97 181.686L2737.17 112.911H2764.63Z" fill="#1434CB"/>
</g>
<path d="M2693.77 360.279C2693.66 359.152 2693.18 358.277 2692.33 357.653C2691.48 357.029 2690.33 356.717 2688.88 356.717C2687.89 356.717 2687.06 356.857 2686.38 357.136C2685.7 357.406 2685.18 357.784 2684.82 358.268C2684.46 358.752 2684.29 359.301 2684.29 359.916C2684.27 360.428 2684.37 360.875 2684.61 361.257C2684.85 361.639 2685.18 361.969 2685.6 362.249C2686.02 362.519 2686.5 362.756 2687.05 362.961C2687.6 363.157 2688.19 363.324 2688.81 363.464L2691.38 364.078C2692.63 364.358 2693.77 364.73 2694.82 365.196C2695.86 365.661 2696.76 366.234 2697.53 366.914C2698.29 367.594 2698.88 368.394 2699.3 369.316C2699.73 370.238 2699.95 371.295 2699.96 372.487C2699.95 374.238 2699.5 375.756 2698.62 377.041C2697.74 378.316 2696.48 379.308 2694.82 380.016C2693.17 380.714 2691.18 381.063 2688.85 381.063C2686.54 381.063 2684.53 380.709 2682.82 380.002C2681.12 379.294 2679.78 378.246 2678.82 376.859C2677.87 375.462 2677.38 373.735 2677.33 371.677H2683.18C2683.25 372.636 2683.52 373.437 2684.01 374.079C2684.5 374.713 2685.16 375.192 2685.98 375.518C2686.8 375.835 2687.74 375.993 2688.78 375.993C2689.81 375.993 2690.7 375.844 2691.45 375.546C2692.22 375.248 2692.81 374.834 2693.23 374.303C2693.64 373.772 2693.85 373.162 2693.85 372.473C2693.85 371.831 2693.66 371.29 2693.28 370.853C2692.91 370.415 2692.36 370.043 2691.63 369.735C2690.92 369.428 2690.04 369.149 2688.99 368.897L2685.88 368.115C2683.47 367.528 2681.56 366.611 2680.17 365.363C2678.77 364.116 2678.07 362.435 2678.08 360.321C2678.07 358.589 2678.54 357.076 2679.47 355.782C2680.41 354.487 2681.7 353.477 2683.34 352.751C2684.98 352.024 2686.84 351.661 2688.92 351.661C2691.05 351.661 2692.9 352.024 2694.48 352.751C2696.07 353.477 2697.31 354.487 2698.2 355.782C2699.08 357.076 2699.54 358.575 2699.57 360.279H2693.77ZM2704.03 380.658V352.052H2723.3V357.039H2710.07V363.855H2722.31V368.841H2710.07V375.672H2723.36V380.658H2704.03ZM2753.35 362.067H2747.23C2747.12 361.276 2746.89 360.573 2746.55 359.958C2746.2 359.334 2745.76 358.803 2745.22 358.366C2744.68 357.928 2744.06 357.593 2743.35 357.36C2742.65 357.127 2741.89 357.011 2741.07 357.011C2739.59 357.011 2738.3 357.379 2737.2 358.114C2736.1 358.84 2735.25 359.902 2734.65 361.299C2734.04 362.686 2733.74 364.372 2733.74 366.355C2733.74 368.394 2734.04 370.108 2734.65 371.495C2735.26 372.883 2736.12 373.93 2737.22 374.638C2738.32 375.346 2739.59 375.7 2741.03 375.7C2741.84 375.7 2742.59 375.593 2743.28 375.378C2743.98 375.164 2744.6 374.852 2745.14 374.443C2745.68 374.023 2746.12 373.516 2746.48 372.92C2746.84 372.324 2747.09 371.644 2747.23 370.881L2753.35 370.909C2753.19 372.222 2752.8 373.488 2752.16 374.708C2751.54 375.918 2750.7 377.003 2749.63 377.962C2748.58 378.912 2747.33 379.666 2745.86 380.225C2744.41 380.775 2742.77 381.049 2740.93 381.049C2738.38 381.049 2736.1 380.472 2734.09 379.317C2732.09 378.163 2730.5 376.491 2729.34 374.303C2728.18 372.115 2727.61 369.465 2727.61 366.355C2727.61 363.236 2728.19 360.582 2729.37 358.394C2730.54 356.205 2732.13 354.538 2734.14 353.393C2736.16 352.238 2738.42 351.661 2740.93 351.661C2742.59 351.661 2744.13 351.894 2745.54 352.359C2746.97 352.825 2748.23 353.505 2749.33 354.399C2750.43 355.283 2751.32 356.368 2752.01 357.653C2752.71 358.938 2753.15 360.41 2753.35 362.067ZM2775.36 352.052H2781.4V370.629C2781.4 372.715 2780.91 374.54 2779.91 376.105C2778.92 377.669 2777.54 378.889 2775.76 379.764C2773.98 380.63 2771.91 381.063 2769.55 381.063C2767.17 381.063 2765.09 380.63 2763.32 379.764C2761.54 378.889 2760.15 377.669 2759.17 376.105C2758.18 374.54 2757.69 372.715 2757.69 370.629V352.052H2763.73V370.113C2763.73 371.202 2763.97 372.17 2764.45 373.018C2764.93 373.865 2765.61 374.531 2766.49 375.015C2767.36 375.499 2768.38 375.742 2769.55 375.742C2770.72 375.742 2771.74 375.499 2772.6 375.015C2773.48 374.531 2774.15 373.865 2774.63 373.018C2775.11 372.17 2775.36 371.202 2775.36 370.113V352.052ZM2786.38 380.658V352.052H2797.67C2799.83 352.052 2801.67 352.439 2803.2 353.211C2804.73 353.975 2805.9 355.06 2806.7 356.466C2807.51 357.863 2807.92 359.506 2807.92 361.397C2807.92 363.296 2807.51 364.93 2806.69 366.299C2805.87 367.659 2804.68 368.702 2803.13 369.428C2801.58 370.154 2799.71 370.518 2797.51 370.518H2789.96V365.657H2796.53C2797.69 365.657 2798.65 365.498 2799.41 365.182C2800.18 364.865 2800.74 364.39 2801.12 363.757C2801.5 363.124 2801.69 362.337 2801.69 361.397C2801.69 360.447 2801.5 359.646 2801.12 358.994C2800.74 358.342 2800.17 357.849 2799.4 357.514C2798.63 357.169 2797.67 356.997 2796.51 356.997H2792.43V380.658H2786.38ZM2801.83 367.64L2808.94 380.658H2802.26L2795.31 367.64H2801.83ZM2812.19 380.658V352.052H2831.47V357.039H2818.24V363.855H2830.48V368.841H2818.24V375.672H2831.52V380.658H2812.19Z" fill="white"/>
<path d="M2586.73 499.996H3036.73V50.0007H2586.73V499.996Z" fill="white"/>
<path d="M2586.73 499.996H3036.73V274.998H2586.73V499.996Z" fill="#1434CB"/>
<mask id="mask2_1906_849" style="mask-type:luminance" maskUnits="userSpaceOnUse" x="2586" y="50" width="451" height="450">
<path d="M2586.73 50H3036.73V500H2586.73V50Z" fill="white"/>
</mask>
<g mask="url(#mask2_1906_849)">
<path d="M2801.98 112.912L2780.37 213.96H2754.23L2775.84 112.912H2801.98ZM2911.97 178.16L2925.73 140.214L2933.64 178.16H2911.97ZM2941.14 213.96H2965.32L2944.2 112.912H2921.9C2916.88 112.912 2912.64 115.825 2910.76 120.319L2871.54 213.96H2898.99L2904.44 198.869H2937.98L2941.14 213.96ZM2872.9 180.971C2873.01 154.303 2836.03 152.825 2836.28 140.91C2836.36 137.289 2839.82 133.432 2847.37 132.446C2851.11 131.964 2861.44 131.573 2873.15 136.969L2877.73 115.532C2871.44 113.257 2863.35 111.066 2853.28 111.066C2827.43 111.066 2809.25 124.794 2809.11 144.466C2808.94 159.014 2822.09 167.125 2831.98 171.971C2842.18 176.923 2845.59 180.098 2845.54 184.523C2845.47 191.303 2837.41 194.305 2829.91 194.419C2816.76 194.623 2809.14 190.864 2803.06 188.032L2798.32 210.185C2804.43 212.985 2815.71 215.421 2827.38 215.546C2854.86 215.546 2872.82 201.98 2872.9 180.971ZM2764.63 112.912L2722.27 213.96H2694.64L2673.8 133.316C2672.53 128.357 2671.43 126.535 2667.59 124.439C2661.3 121.025 2650.93 117.832 2641.8 115.846L2642.42 112.912H2686.9C2692.57 112.912 2697.66 116.682 2698.96 123.21L2709.97 181.687L2737.17 112.912H2764.63Z" fill="#1434CB"/>
<path d="M2679.65 376.531C2679.65 373.177 2680.45 370.32 2682.03 367.949C2683.62 365.581 2685.83 363.759 2688.67 362.484C2691.51 361.211 2694.8 360.574 2698.56 360.574C2702.45 360.574 2705.51 360.897 2707.74 361.545C2709.98 362.193 2711.77 362.897 2713.11 363.659L2713.91 373.984H2713.65C2712.48 373.045 2711.05 372.227 2709.35 371.536C2707.65 370.843 2705.87 370.306 2703.99 369.927C2702.11 369.547 2700.28 369.356 2698.49 369.356C2695.99 369.356 2694 369.69 2692.53 370.361C2691.05 371.031 2690.31 372.284 2690.31 374.118C2690.31 375.502 2690.65 376.586 2691.32 377.368C2691.99 378.152 2693.07 378.811 2694.57 379.345C2696.07 379.884 2698.05 380.463 2700.5 381.09C2702.92 381.672 2705.16 382.286 2707.24 382.931C2709.32 383.584 2711.13 384.431 2712.67 385.481C2714.22 386.531 2715.41 387.94 2716.26 389.704C2717.11 391.47 2717.53 393.761 2717.53 396.577C2717.53 401.986 2715.79 406.143 2712.3 409.047C2708.82 411.954 2703.95 413.406 2697.69 413.406C2695.63 413.406 2693.53 413.215 2691.39 412.836C2689.24 412.456 2687.23 411.929 2685.35 411.259C2683.48 410.588 2681.87 409.786 2680.53 408.847L2679.79 398.454H2680.12C2682.36 400.331 2685.1 401.829 2688.37 402.945C2691.63 404.063 2694.92 404.622 2698.22 404.622C2701.04 404.622 2703.12 404.186 2704.46 403.315C2705.8 402.443 2706.47 401.093 2706.47 399.259C2706.47 397.963 2706.17 396.902 2705.57 396.074C2704.96 395.247 2703.9 394.522 2702.38 393.895C2700.86 393.27 2698.72 392.62 2695.94 391.949C2693.84 391.415 2691.82 390.822 2689.88 390.174C2687.93 389.527 2686.19 388.654 2684.65 387.561C2683.11 386.463 2681.89 385.034 2680.99 383.268C2680.1 381.504 2679.65 379.256 2679.65 376.531Z" fill="white"/>
<path d="M2723.7 412.467V361.512H2757.56V370.833H2735.17V381.694H2752.73V390.676H2735.17V403.146H2757.56V412.467H2723.7Z" fill="white"/>
<path d="M2773.45 386.989C2773.45 392.353 2774.86 396.544 2777.7 399.56C2780.54 402.576 2784.51 404.085 2789.6 404.085C2793.18 404.085 2796.14 403.539 2798.49 402.444C2800.83 401.348 2802.95 399.951 2804.82 398.253H2805.09L2803.88 409.183C2801.92 410.344 2799.66 411.339 2797.11 412.164C2794.56 412.989 2791.55 413.405 2788.06 413.405C2783.9 413.405 2780.19 412.735 2776.93 411.394C2773.67 410.053 2770.87 408.187 2768.55 405.794C2766.23 403.405 2764.46 400.598 2763.25 397.38C2762.05 394.162 2761.45 390.701 2761.45 386.989C2761.45 383.28 2762.05 379.817 2763.25 376.598C2764.46 373.38 2766.22 370.573 2768.52 368.185C2770.82 365.794 2773.61 363.926 2776.9 362.585C2780.18 361.244 2783.88 360.573 2787.99 360.573C2791.48 360.573 2794.47 360.919 2796.95 361.612C2799.42 362.308 2801.52 363.278 2803.21 364.528L2804.49 375.523H2804.22C2802.34 373.873 2800.16 372.519 2797.68 371.469C2795.2 370.419 2792.51 369.894 2789.6 369.894C2784.51 369.894 2780.54 371.403 2777.7 374.419C2774.86 377.435 2773.45 381.626 2773.45 386.989Z" fill="white"/>
<path d="M2833.18 403.684C2837.11 403.684 2840 402.822 2841.83 401.102C2843.66 399.382 2844.58 396.577 2844.58 392.688V361.511H2854.23V393.293C2854.23 400.263 2852.38 405.359 2848.67 408.577C2844.96 411.795 2839.57 413.404 2832.51 413.404C2825.49 413.404 2820.05 411.818 2816.18 408.645C2812.32 405.47 2810.39 400.377 2810.39 393.359V361.511H2821.85V392.62C2821.85 396.554 2822.73 399.382 2824.5 401.102C2826.26 402.822 2829.16 403.684 2833.18 403.684Z" fill="white"/>
<path d="M2881.79 370.43H2873.61V385.112H2881.79C2884.51 385.112 2886.55 384.576 2887.89 383.503C2889.23 382.43 2889.9 380.51 2889.9 377.737C2889.9 375.055 2889.23 373.167 2887.89 372.074C2886.55 370.976 2884.51 370.43 2881.79 370.43ZM2862.14 412.467V361.512H2885.01C2888.4 361.512 2891.38 362.194 2893.92 363.558C2896.47 364.921 2898.44 366.799 2899.83 369.19C2901.21 371.58 2901.9 374.342 2901.9 377.469C2901.9 380.867 2901.03 383.849 2899.29 386.419C2897.55 388.99 2895.18 390.812 2892.18 391.883L2904.58 412.467H2891.44L2880.71 393.426H2873.61V412.467H2862.14Z" fill="white"/>
<path d="M2910.29 412.467V361.512H2944.14V370.833H2921.75V381.694H2939.31V390.676H2921.75V403.146H2944.14V412.467H2910.29Z" fill="white"/>
</g>
<path d="M2586.73 499.996H3036.73V50.0007H2586.73V499.996Z" fill="white"/>
<path d="M2586.73 499.996H3036.73V274.998H2586.73V499.996Z" fill="#1434CB"/>
<mask id="mask3_1906_849" style="mask-type:luminance" maskUnits="userSpaceOnUse" x="2586" y="50" width="451" height="450">
<path d="M2586.73 50H3036.73V500H2586.73V50Z" fill="white"/>
</mask>
<g mask="url(#mask3_1906_849)">
<path d="M2801.98 112.911L2780.37 213.959H2754.23L2775.84 112.911H2801.98ZM2911.97 178.159L2925.73 140.213L2933.64 178.159H2911.97ZM2941.14 213.959H2965.32L2944.2 112.911H2921.9C2916.88 112.911 2912.64 115.824 2910.76 120.318L2871.54 213.959H2898.99L2904.44 198.868H2937.98L2941.14 213.959ZM2872.9 180.97C2873.01 154.302 2836.03 152.824 2836.28 140.909C2836.36 137.288 2839.82 133.431 2847.37 132.445C2851.11 131.963 2861.44 131.572 2873.15 136.968L2877.73 115.531C2871.44 113.256 2863.35 111.065 2853.28 111.065C2827.43 111.065 2809.25 124.793 2809.11 144.465C2808.94 159.013 2822.09 167.124 2831.98 171.97C2842.18 176.922 2845.59 180.097 2845.54 184.522C2845.47 191.302 2837.41 194.304 2829.91 194.418C2816.76 194.622 2809.14 190.863 2803.06 188.031L2798.32 210.184C2804.43 212.984 2815.71 215.42 2827.38 215.545C2854.86 215.545 2872.82 201.979 2872.9 180.97ZM2764.63 112.911L2722.27 213.959H2694.64L2673.8 133.315C2672.53 128.356 2671.43 126.534 2667.59 124.438C2661.3 121.024 2650.93 117.831 2641.8 115.845L2642.42 112.911H2686.9C2692.57 112.911 2697.66 116.681 2698.96 123.209L2709.97 181.686L2737.17 112.911H2764.63Z" fill="#1434CB"/>
</g>
<path d="M2695.89 359.159C2695.72 357.743 2695.04 356.645 2693.85 355.862C2692.65 355.08 2691.19 354.689 2689.46 354.689C2688.19 354.689 2687.09 354.894 2686.14 355.304C2685.2 355.713 2684.46 356.277 2683.93 356.994C2683.41 357.711 2683.15 358.526 2683.15 359.438C2683.15 360.202 2683.33 360.858 2683.69 361.408C2684.06 361.948 2684.54 362.399 2685.12 362.762C2685.69 363.116 2686.3 363.41 2686.93 363.642C2687.57 363.866 2688.15 364.047 2688.68 364.187L2691.58 364.969C2692.33 365.165 2693.16 365.435 2694.07 365.779C2694.99 366.124 2695.87 366.594 2696.71 367.19C2697.56 367.777 2698.26 368.531 2698.8 369.453C2699.35 370.375 2699.63 371.506 2699.63 372.847C2699.63 374.393 2699.22 375.79 2698.41 377.038C2697.61 378.285 2696.44 379.277 2694.89 380.013C2693.36 380.748 2691.49 381.116 2689.29 381.116C2687.24 381.116 2685.47 380.786 2683.97 380.124C2682.48 379.463 2681.31 378.541 2680.45 377.359C2679.6 376.176 2679.12 374.803 2679.01 373.238H2682.59C2682.68 374.318 2683.04 375.212 2683.68 375.92C2684.32 376.618 2685.13 377.14 2686.11 377.484C2687.09 377.82 2688.16 377.987 2689.29 377.987C2690.61 377.987 2691.8 377.773 2692.85 377.345C2693.91 376.907 2694.74 376.302 2695.35 375.529C2695.97 374.747 2696.28 373.834 2696.28 372.791C2696.28 371.842 2696.01 371.069 2695.48 370.473C2694.95 369.877 2694.25 369.392 2693.39 369.02C2692.52 368.648 2691.58 368.322 2690.58 368.042L2687.06 367.037C2684.82 366.394 2683.05 365.477 2681.75 364.285C2680.45 363.093 2679.79 361.533 2679.79 359.606C2679.79 358.004 2680.23 356.607 2681.09 355.415C2681.97 354.214 2683.14 353.283 2684.61 352.622C2686.09 351.951 2687.75 351.616 2689.57 351.616C2691.42 351.616 2693.05 351.947 2694.49 352.608C2695.92 353.26 2697.06 354.154 2697.9 355.29C2698.74 356.426 2699.19 357.715 2699.24 359.159H2695.89ZM2705.32 380.613V352.007H2722.59V355.08H2708.79V364.746H2721.69V367.819H2708.79V377.54H2722.81V380.613H2705.32ZM2751.85 360.947H2748.39C2748.18 359.95 2747.82 359.075 2747.31 358.321C2746.81 357.566 2746.19 356.933 2745.47 356.421C2744.75 355.9 2743.95 355.508 2743.08 355.248C2742.2 354.987 2741.29 354.857 2740.34 354.857C2738.61 354.857 2737.04 355.294 2735.63 356.17C2734.24 357.045 2733.12 358.335 2732.3 360.039C2731.48 361.743 2731.07 363.833 2731.07 366.31C2731.07 368.787 2731.48 370.878 2732.3 372.582C2733.12 374.286 2734.24 375.576 2735.63 376.451C2737.04 377.326 2738.61 377.764 2740.34 377.764C2741.29 377.764 2742.2 377.633 2743.08 377.373C2743.95 377.112 2744.75 376.726 2745.47 376.213C2746.19 375.692 2746.81 375.054 2747.31 374.3C2747.82 373.536 2748.18 372.661 2748.39 371.674H2751.85C2751.59 373.136 2751.12 374.444 2750.43 375.599C2749.74 376.754 2748.88 377.736 2747.86 378.546C2746.83 379.347 2745.68 379.957 2744.41 380.376C2743.14 380.795 2741.78 381.004 2740.34 381.004C2737.9 381.004 2735.73 380.408 2733.83 379.217C2731.93 378.025 2730.44 376.33 2729.35 374.132C2728.26 371.935 2727.71 369.327 2727.71 366.31C2727.71 363.293 2728.26 360.686 2729.35 358.488C2730.44 356.291 2731.93 354.596 2733.83 353.404C2735.73 352.212 2737.9 351.616 2740.34 351.616C2741.78 351.616 2743.14 351.826 2744.41 352.245C2745.68 352.664 2746.83 353.278 2747.86 354.088C2748.88 354.889 2749.74 355.867 2750.43 357.022C2751.12 358.167 2751.59 359.475 2751.85 360.947ZM2776.22 352.007H2779.69V370.948C2779.69 372.903 2779.22 374.649 2778.3 376.185C2777.39 377.713 2776.1 378.919 2774.43 379.803C2772.77 380.678 2770.81 381.116 2768.57 381.116C2766.32 381.116 2764.37 380.678 2762.7 379.803C2761.03 378.919 2759.74 377.713 2758.82 376.185C2757.9 374.649 2757.45 372.903 2757.45 370.948V352.007H2760.91V370.668C2760.91 372.065 2761.22 373.308 2761.83 374.398C2762.45 375.478 2763.32 376.33 2764.46 376.954C2765.61 377.568 2766.97 377.876 2768.57 377.876C2770.16 377.876 2771.53 377.568 2772.67 376.954C2773.82 376.33 2774.69 375.478 2775.3 374.398C2775.91 373.308 2776.22 372.065 2776.22 370.668V352.007ZM2786.6 380.613V352.007H2796.27C2798.5 352.007 2800.34 352.389 2801.77 353.153C2803.21 353.907 2804.27 354.945 2804.96 356.267C2805.65 357.59 2805.99 359.094 2805.99 360.779C2805.99 362.464 2805.65 363.959 2804.96 365.263C2804.27 366.566 2803.21 367.591 2801.79 368.336C2800.36 369.071 2798.54 369.439 2796.32 369.439H2788.5V366.31H2796.21C2797.74 366.31 2798.97 366.087 2799.9 365.64C2800.84 365.193 2801.52 364.56 2801.94 363.74C2802.37 362.911 2802.58 361.924 2802.58 360.779C2802.58 359.634 2802.37 358.633 2801.94 357.776C2801.51 356.919 2800.83 356.258 2799.89 355.792C2798.95 355.318 2797.7 355.08 2796.16 355.08H2790.07V380.613H2786.6ZM2800.07 367.763L2807.11 380.613H2803.08L2796.16 367.763H2800.07ZM2811.76 380.613V352.007H2829.03V355.08H2815.23V364.746H2828.13V367.819H2815.23V377.54H2829.25V380.613H2811.76Z" fill="white"/>
<path d="M2586.73 499.996H3036.73V50.0007H2586.73V499.996Z" fill="white"/>
<path d="M2586.73 499.996H3036.73V274.998H2586.73V499.996Z" fill="#1434CB"/>
<mask id="mask4_1906_849" style="mask-type:luminance" maskUnits="userSpaceOnUse" x="2586" y="50" width="451" height="450">
<path d="M2586.73 50H3036.73V500H2586.73V50Z" fill="white"/>
</mask>
<g mask="url(#mask4_1906_849)">
<path d="M2801.98 112.913L2780.37 213.961H2754.23L2775.84 112.913H2801.98ZM2911.97 178.161L2925.73 140.215L2933.64 178.161H2911.97ZM2941.14 213.961H2965.32L2944.2 112.913H2921.9C2916.88 112.913 2912.64 115.826 2910.76 120.32L2871.54 213.961H2898.99L2904.44 198.87H2937.98L2941.14 213.961ZM2872.9 180.972C2873.01 154.304 2836.03 152.826 2836.28 140.911C2836.36 137.29 2839.82 133.433 2847.37 132.447C2851.11 131.965 2861.44 131.574 2873.15 136.97L2877.73 115.533C2871.44 113.258 2863.35 111.067 2853.28 111.067C2827.43 111.067 2809.25 124.795 2809.11 144.467C2808.94 159.015 2822.09 167.126 2831.98 171.972C2842.18 176.924 2845.59 180.099 2845.54 184.524C2845.47 191.304 2837.41 194.306 2829.91 194.42C2816.76 194.624 2809.14 190.865 2803.06 188.033L2798.32 210.186C2804.43 212.986 2815.71 215.422 2827.38 215.547C2854.86 215.547 2872.82 201.981 2872.9 180.972ZM2764.63 112.913L2722.27 213.961H2694.64L2673.8 133.317C2672.53 128.358 2671.43 126.536 2667.59 124.44C2661.3 121.026 2650.93 117.833 2641.8 115.847L2642.42 112.913H2686.9C2692.57 112.913 2697.66 116.683 2698.96 123.211L2709.97 181.688L2737.17 112.913H2764.63Z" fill="#1434CB"/>
<path d="M2681.44 374.989C2681.44 371.771 2682.22 369.046 2683.79 366.81C2685.35 364.576 2687.49 362.889 2690.19 361.748C2692.9 360.61 2695.95 360.039 2699.34 360.039C2703.14 360.039 2706.17 360.407 2708.43 361.144C2710.69 361.882 2712.42 362.632 2713.62 363.389L2714.23 371.839H2714.03C2712.91 370.901 2711.54 370.073 2709.9 369.357C2708.27 368.644 2706.54 368.073 2704.71 367.651C2702.87 367.223 2701.06 367.012 2699.28 367.012C2696.46 367.012 2694.18 367.469 2692.44 368.387C2690.69 369.303 2689.82 370.901 2689.82 373.18C2689.82 374.923 2690.24 376.287 2691.06 377.269C2691.89 378.255 2693.13 379.057 2694.79 379.682C2696.44 380.31 2698.49 380.957 2700.95 381.628C2703.28 382.253 2705.46 382.892 2707.49 383.539C2709.52 384.187 2711.3 385.037 2712.82 386.087C2714.34 387.137 2715.54 388.523 2716.41 390.244C2717.28 391.964 2717.71 394.167 2717.71 396.846C2717.71 402.032 2716.03 406.001 2712.65 408.748C2709.28 411.496 2704.55 412.871 2698.47 412.871C2695.43 412.871 2692.37 412.455 2689.29 411.63C2686.2 410.805 2683.7 409.696 2681.78 408.312L2681.24 399.796H2681.44C2683.68 401.673 2686.36 403.151 2689.49 404.221C2692.62 405.294 2695.77 405.83 2698.94 405.83C2705.69 405.83 2709.06 403.507 2709.06 398.857C2709.06 397.205 2708.69 395.864 2707.93 394.835C2707.16 393.807 2705.94 392.946 2704.24 392.255C2702.54 391.562 2700.33 390.857 2697.6 390.142C2695.46 389.562 2693.42 388.937 2691.5 388.267C2689.58 387.594 2687.86 386.723 2686.34 385.648C2684.82 384.578 2683.62 383.192 2682.75 381.494C2681.88 379.794 2681.44 377.628 2681.44 374.989Z" fill="white"/>
<path d="M2724.42 411.932V360.977H2757.27V368.352H2733.4V381.961H2752.24V389.068H2733.4V404.557H2757.27V411.932H2724.42Z" fill="white"/>
<path d="M2770.88 386.455C2770.88 390.298 2771.58 393.653 2772.99 396.512C2774.4 399.373 2776.42 401.585 2779.06 403.151C2781.69 404.714 2784.87 405.496 2788.58 405.496C2792.38 405.496 2795.53 404.926 2798.03 403.787C2800.53 402.646 2802.72 401.162 2804.6 399.328H2804.8L2803.87 408.246C2801.9 409.587 2799.57 410.692 2796.89 411.564C2794.21 412.437 2791.08 412.871 2787.51 412.871C2783.48 412.871 2779.87 412.189 2776.68 410.828C2773.48 409.462 2770.75 407.587 2768.5 405.194C2766.24 402.803 2764.52 399.998 2763.34 396.78C2762.15 393.562 2761.56 390.119 2761.56 386.455C2761.56 382.746 2762.15 379.294 2763.34 376.096C2764.52 372.901 2766.24 370.107 2768.5 367.717C2770.75 365.326 2773.47 363.448 2776.64 362.082C2779.82 360.721 2783.39 360.039 2787.37 360.039C2790.95 360.039 2794.03 360.407 2796.62 361.144C2799.22 361.882 2801.43 362.944 2803.26 364.33L2804.2 373.448H2804C2802.12 371.617 2799.91 370.153 2797.36 369.057C2794.81 367.962 2791.84 367.414 2788.44 367.414C2784.73 367.414 2781.57 368.196 2778.96 369.76C2776.34 371.326 2774.34 373.537 2772.96 376.398C2771.57 379.26 2770.88 382.612 2770.88 386.455Z" fill="white"/>
<path d="M2833.16 405.227C2837.77 405.227 2841.12 404.234 2843.22 402.245C2845.32 400.254 2846.37 396.87 2846.37 392.086V360.977H2853.88V392.556C2853.88 399.706 2852.08 404.881 2848.48 408.077C2844.89 411.272 2839.64 412.87 2832.76 412.87C2825.92 412.87 2820.61 411.284 2816.81 408.111C2813.01 404.936 2811.11 399.754 2811.11 392.556V360.977H2820.09V391.886C2820.09 396.668 2821.11 400.088 2823.14 402.145C2825.17 404.2 2828.51 405.227 2833.16 405.227Z" fill="white"/>
<path d="M2881.77 368.084H2871.65V385.248H2881.77C2885.03 385.248 2887.39 384.543 2888.84 383.136C2890.3 381.727 2891.02 379.573 2891.02 376.666C2891.02 373.761 2890.3 371.604 2888.84 370.198C2887.39 368.788 2885.03 368.084 2881.77 368.084ZM2862.66 411.932V360.977H2884.19C2887.54 360.977 2890.43 361.648 2892.87 362.988C2895.3 364.329 2897.17 366.173 2898.47 368.518C2899.76 370.868 2900.41 373.516 2900.41 376.466C2900.41 379.952 2899.45 382.993 2897.53 385.582C2895.6 388.175 2892.99 389.898 2889.68 390.745L2902.76 411.932H2892.43L2880.63 391.952H2871.65V411.932H2862.66Z" fill="white"/>
<path d="M2909.46 411.932V360.977H2942.31V368.352H2918.45V381.961H2937.29V389.068H2918.45V404.557H2942.31V411.932H2909.46Z" fill="white"/>
</g>
<path d="M2586.73 499.996H3036.73V50.0007H2586.73V499.996Z" fill="white"/>
<path d="M2586.73 499.996H3036.73V274.998H2586.73V499.996Z" fill="#1434CB"/>
<mask id="mask5_1906_849" style="mask-type:luminance" maskUnits="userSpaceOnUse" x="2586" y="50" width="451" height="450">
<path d="M2586.73 50H3036.73V500H2586.73V50Z" fill="white"/>
</mask>
<g mask="url(#mask5_1906_849)">
<path d="M2801.98 112.912L2780.37 213.96H2754.23L2775.84 112.912H2801.98ZM2911.97 178.16L2925.73 140.214L2933.64 178.16H2911.97ZM2941.14 213.96H2965.32L2944.2 112.912H2921.9C2916.88 112.912 2912.64 115.825 2910.76 120.319L2871.54 213.96H2898.99L2904.44 198.869H2937.98L2941.14 213.96ZM2872.9 180.971C2873.01 154.303 2836.03 152.825 2836.28 140.91C2836.36 137.289 2839.82 133.432 2847.37 132.446C2851.11 131.964 2861.44 131.573 2873.15 136.969L2877.73 115.532C2871.44 113.257 2863.35 111.066 2853.28 111.066C2827.43 111.066 2809.25 124.794 2809.11 144.466C2808.94 159.014 2822.09 167.125 2831.98 171.971C2842.18 176.923 2845.59 180.098 2845.54 184.523C2845.47 191.303 2837.41 194.305 2829.91 194.419C2816.76 194.623 2809.14 190.864 2803.06 188.032L2798.32 210.185C2804.43 212.985 2815.71 215.421 2827.38 215.546C2854.86 215.546 2872.82 201.98 2872.9 180.971ZM2764.63 112.912L2722.27 213.96H2694.64L2673.8 133.316C2672.53 128.357 2671.43 126.535 2667.59 124.439C2661.3 121.025 2650.93 117.832 2641.8 115.846L2642.42 112.912H2686.9C2692.57 112.912 2697.66 116.682 2698.96 123.21L2709.97 181.687L2737.17 112.912H2764.63Z" fill="#1434CB"/>
<path d="M2689.91 377.218C2689.91 374.093 2690.65 371.427 2692.13 369.218C2693.61 367.011 2695.67 365.313 2698.32 364.125C2700.97 362.938 2704.04 362.343 2707.54 362.343C2711.16 362.343 2714.02 362.647 2716.1 363.25C2718.18 363.854 2719.85 364.511 2721.1 365.22L2721.85 374.843H2721.6C2720.52 373.968 2719.18 373.209 2717.6 372.561C2716.02 371.916 2714.35 371.416 2712.6 371.061C2710.85 370.709 2709.14 370.531 2707.48 370.531C2705.14 370.531 2703.29 370.843 2701.91 371.47C2700.54 372.093 2699.85 373.261 2699.85 374.968C2699.85 376.261 2700.16 377.27 2700.79 378C2701.41 378.729 2702.42 379.345 2703.82 379.843C2705.21 380.343 2707.06 380.884 2709.35 381.468C2711.6 382.009 2713.69 382.584 2715.63 383.188C2717.57 383.793 2719.26 384.584 2720.69 385.563C2722.13 386.543 2723.25 387.854 2724.04 389.5C2724.83 391.147 2725.23 393.279 2725.23 395.906C2725.23 400.947 2723.6 404.822 2720.35 407.531C2717.1 410.238 2712.56 411.593 2706.73 411.593C2704.81 411.593 2702.85 411.416 2700.85 411.063C2698.85 410.709 2696.98 410.22 2695.23 409.593C2693.48 408.97 2691.98 408.22 2690.73 407.343L2690.04 397.656H2690.35C2692.43 399.406 2695 400.802 2698.04 401.843C2701.08 402.886 2704.14 403.404 2707.23 403.404C2709.85 403.404 2711.79 403 2713.04 402.186C2714.29 401.375 2714.91 400.113 2714.91 398.404C2714.91 397.197 2714.63 396.206 2714.07 395.438C2713.51 394.668 2712.52 393.991 2711.1 393.406C2709.68 392.822 2707.68 392.22 2705.1 391.593C2703.14 391.093 2701.26 390.541 2699.44 389.938C2697.63 389.334 2696.01 388.522 2694.57 387.5C2693.13 386.479 2692 385.145 2691.16 383.5C2690.33 381.854 2689.91 379.761 2689.91 377.218Z" fill="white"/>
<path d="M2730.97 410.718V363.218H2762.54V371.906H2741.66V382.031H2758.04V390.404H2741.66V402.031H2762.54V410.718H2730.97Z" fill="white"/>
<path d="M2776.72 386.968C2776.72 391.968 2778.04 395.875 2780.69 398.686C2783.33 401.5 2787.03 402.906 2791.78 402.906C2795.12 402.906 2797.88 402.395 2800.06 401.375C2802.25 400.354 2804.22 399.052 2805.97 397.468H2806.22L2805.09 407.656C2803.26 408.741 2801.16 409.666 2798.78 410.436C2796.41 411.206 2793.59 411.593 2790.34 411.593C2786.47 411.593 2783.01 410.97 2779.97 409.718C2776.93 408.468 2774.32 406.729 2772.16 404.5C2769.99 402.27 2768.34 399.656 2767.22 396.656C2766.09 393.654 2765.53 390.427 2765.53 386.968C2765.53 383.511 2766.09 380.281 2767.22 377.279C2768.34 374.281 2769.98 371.668 2772.13 369.436C2774.27 367.209 2776.87 365.468 2779.94 364.218C2783 362.968 2786.45 362.343 2790.28 362.343C2793.53 362.343 2796.31 362.668 2798.63 363.313C2800.94 363.959 2802.89 364.863 2804.47 366.031L2805.66 376.281H2805.41C2803.66 374.741 2801.62 373.477 2799.31 372.5C2797 371.52 2794.49 371.029 2791.78 371.029C2787.03 371.029 2783.33 372.436 2780.69 375.25C2778.04 378.061 2776.72 381.968 2776.72 386.968Z" fill="white"/>
<path d="M2832.41 402.53C2836.07 402.53 2838.76 401.728 2840.47 400.124C2842.18 398.519 2843.03 395.905 2843.03 392.28V363.217H2852.03V392.842C2852.03 399.344 2850.3 404.092 2846.84 407.094C2843.39 410.092 2838.37 411.592 2831.78 411.592C2825.24 411.592 2820.17 410.115 2816.56 407.155C2812.96 404.196 2811.16 399.449 2811.16 392.905V363.217H2821.84V392.219C2821.84 395.885 2822.67 398.519 2824.31 400.124C2825.96 401.728 2828.66 402.53 2832.41 402.53Z" fill="white"/>
<path d="M2877.72 371.531H2870.1V385.218H2877.72C2880.26 385.218 2882.16 384.718 2883.41 383.718C2884.66 382.718 2885.28 380.927 2885.28 378.343C2885.28 375.843 2884.66 374.084 2883.41 373.063C2882.16 372.043 2880.26 371.531 2877.72 371.531ZM2859.41 410.718V363.218H2880.72C2883.89 363.218 2886.66 363.854 2889.03 365.125C2891.41 366.395 2893.24 368.147 2894.53 370.375C2895.82 372.604 2896.47 375.177 2896.47 378.093C2896.47 381.259 2895.66 384.043 2894.03 386.438C2892.41 388.834 2890.2 390.529 2887.41 391.531L2898.97 410.718H2886.72L2876.72 392.97H2870.1V410.718H2859.41Z" fill="white"/>
<path d="M2903.03 410.718V363.218H2934.59V371.906H2913.72V382.031H2930.09V390.404H2913.72V402.031H2934.59V410.718H2903.03Z" fill="white"/>
</g>
<path d="M2586.76 500H3036.73V50.0637H2586.76V500Z" fill="white"/>
<path d="M2586.76 500H3036.73V275.066H2586.76V500Z" fill="#1434CB"/>
<mask id="mask6_1906_849" style="mask-type:luminance" maskUnits="userSpaceOnUse" x="2586" y="50" width="451" height="450">
<path d="M2586.73 50H3036.73V500H2586.73V50Z" fill="white"/>
</mask>
<g mask="url(#mask6_1906_849)">
<path d="M2803.38 112.977L2781.77 214.025H2755.62L2777.24 112.977H2803.38ZM2913.37 178.227L2927.12 140.277L2935.04 178.227H2913.37ZM2942.55 214.025H2966.72L2945.6 112.977H2923.3C2918.27 112.977 2914.04 115.891 2912.16 120.384L2872.94 214.025H2900.39L2905.84 198.934H2939.38L2942.55 214.025ZM2874.3 181.036C2874.41 154.368 2837.43 152.891 2837.68 140.975C2837.76 137.354 2841.21 133.497 2848.77 132.511C2852.51 132.027 2862.84 131.638 2874.55 137.034L2879.13 115.595C2872.84 113.322 2864.74 111.131 2854.67 111.131C2828.83 111.131 2810.65 124.859 2810.5 144.531C2810.34 159.079 2823.49 167.191 2833.38 172.036C2843.58 176.988 2846.99 180.166 2846.94 184.591C2846.87 191.37 2838.81 194.37 2831.31 194.484C2818.16 194.688 2810.53 190.929 2804.46 188.097L2799.72 210.25C2805.83 213.05 2817.1 215.486 2828.78 215.613C2856.25 215.613 2874.22 202.045 2874.3 181.036ZM2766.03 112.977L2723.67 214.025H2696.04L2675.19 133.381C2673.93 128.422 2672.83 126.6 2668.98 124.504C2662.7 121.088 2652.32 117.897 2643.2 115.909L2643.81 112.977H2688.3C2693.96 112.977 2699.06 116.747 2700.36 123.272L2711.37 181.752L2738.56 112.977H2766.03Z" fill="#1434CB"/>
<path d="M2680.76 374.432C2680.76 371.213 2681.54 368.488 2683.11 366.252C2684.67 364.018 2686.81 362.332 2689.51 361.191C2692.22 360.052 2695.27 359.482 2698.66 359.482C2702.46 359.482 2705.49 359.85 2707.75 360.586C2710.01 361.325 2711.74 362.075 2712.94 362.832L2713.55 371.282H2713.35C2712.23 370.343 2710.86 369.516 2709.22 368.8C2707.59 368.086 2705.86 367.516 2704.03 367.093C2702.19 366.666 2700.38 366.454 2698.6 366.454C2695.78 366.454 2693.5 366.911 2691.76 367.829C2690.01 368.745 2689.14 370.343 2689.14 372.623C2689.14 374.366 2689.56 375.729 2690.38 376.711C2691.21 377.698 2692.45 378.5 2694.11 379.125C2695.76 379.752 2697.81 380.4 2700.27 381.07C2702.6 381.695 2704.78 382.334 2706.81 382.982C2708.84 383.629 2710.62 384.479 2712.14 385.529C2713.66 386.579 2714.86 387.966 2715.73 389.686C2716.6 391.407 2717.03 393.609 2717.03 396.288C2717.03 401.475 2715.35 405.443 2711.97 408.191C2708.6 410.938 2703.87 412.313 2697.79 412.313C2694.75 412.313 2691.69 411.898 2688.61 411.073C2685.52 410.248 2683.02 409.138 2681.1 407.754L2680.56 399.238H2680.76C2683 401.116 2685.68 402.593 2688.81 403.663C2691.94 404.736 2695.09 405.273 2698.26 405.273C2705.01 405.273 2708.39 402.95 2708.39 398.3C2708.39 396.648 2708.01 395.307 2707.25 394.277C2706.49 393.25 2705.26 392.388 2703.56 391.698C2701.86 391.004 2699.65 390.3 2696.92 389.584C2694.78 389.004 2692.74 388.379 2690.82 387.709C2688.9 387.036 2687.18 386.166 2685.66 385.091C2684.14 384.02 2682.94 382.634 2682.07 380.936C2681.2 379.236 2680.76 377.07 2680.76 374.432Z" fill="white"/>
<path d="M2723.74 411.374V360.419H2756.59V367.794H2732.72V381.404H2751.56V388.51H2732.72V403.999H2756.59V411.374H2723.74Z" fill="white"/>
<path d="M2770.2 385.898C2770.2 389.741 2770.9 393.095 2772.31 395.954C2773.72 398.816 2775.74 401.027 2778.38 402.593C2781.02 404.157 2784.19 404.938 2787.9 404.938C2791.7 404.938 2794.85 404.368 2797.35 403.229C2799.86 402.088 2802.05 400.604 2803.92 398.77H2804.12L2803.19 407.688C2801.22 409.029 2798.89 410.134 2796.21 411.007C2793.53 411.879 2790.4 412.313 2786.83 412.313C2782.8 412.313 2779.19 411.632 2776 410.27C2772.8 408.904 2770.07 407.029 2767.82 404.636C2765.56 402.245 2763.84 399.441 2762.66 396.223C2761.47 393.004 2760.88 389.561 2760.88 385.898C2760.88 382.188 2761.47 378.736 2762.66 375.538C2763.84 372.343 2765.56 369.55 2767.82 367.159C2770.07 364.768 2772.79 362.891 2775.97 361.525C2779.14 360.163 2782.71 359.482 2786.69 359.482C2790.27 359.482 2793.35 359.85 2795.94 360.586C2798.54 361.325 2800.75 362.386 2802.58 363.773L2803.52 372.891H2803.32C2801.44 371.059 2799.23 369.595 2796.68 368.5C2794.13 367.404 2791.16 366.857 2787.77 366.857C2784.05 366.857 2780.89 367.638 2778.28 369.202C2775.66 370.768 2773.66 372.979 2772.28 375.841C2770.89 378.702 2770.2 382.054 2770.2 385.898Z" fill="white"/>
<path d="M2832.49 404.669C2837.09 404.669 2840.44 403.676 2842.55 401.688C2844.65 399.697 2845.7 396.312 2845.7 391.528V360.419H2853.2V391.999C2853.2 399.149 2851.4 404.324 2847.81 407.519C2844.21 410.715 2838.97 412.312 2832.09 412.312C2825.25 412.312 2819.93 410.726 2816.13 407.553C2812.33 404.378 2810.43 399.197 2810.43 391.999V360.419H2819.41V391.328C2819.41 396.11 2820.43 399.531 2822.47 401.588C2824.5 403.642 2827.84 404.669 2832.49 404.669Z" fill="white"/>
<path d="M2881.1 367.526H2870.97V384.69H2881.1C2884.36 384.69 2886.72 383.985 2888.17 382.579C2889.62 381.169 2890.35 379.015 2890.35 376.108C2890.35 373.204 2889.62 371.047 2888.17 369.64C2886.72 368.231 2884.36 367.526 2881.1 367.526ZM2861.99 411.374V360.419H2883.51C2886.86 360.419 2889.76 361.09 2892.2 362.431C2894.63 363.772 2896.5 365.615 2897.79 367.96C2899.09 370.31 2899.74 372.958 2899.74 375.908C2899.74 379.394 2898.77 382.435 2896.85 385.024C2894.93 387.617 2892.32 389.34 2889.01 390.188L2902.08 411.374H2891.76L2879.96 391.394H2870.97V411.374H2861.99Z" fill="white"/>
<path d="M2908.79 411.374V360.419H2941.64V367.794H2917.77V381.404H2936.61V388.51H2917.77V403.999H2941.64V411.374H2908.79Z" fill="white"/>
</g>
</g>
<g clip-path="url(#clip4_1906_849)">
<path d="M1910.51 130.303L1788.9 420.462H1709.55L1649.71 188.901C1646.07 174.639 1642.91 169.414 1631.86 163.405C1613.82 153.617 1584.03 144.435 1557.82 138.735L1559.6 130.303H1687.32C1703.6 130.303 1718.23 141.14 1721.93 159.887L1753.54 327.788L1831.65 130.298H1910.51V130.303ZM2221.4 325.727C2221.72 249.145 2115.5 244.926 2116.23 210.716C2116.46 200.305 2126.37 189.235 2148.07 186.41C2158.83 185.002 2188.46 183.928 2222.07 199.395L2235.25 137.864C2217.19 131.309 2193.96 125 2165.04 125C2090.85 125 2038.64 164.44 2038.2 220.915C2037.72 262.687 2075.47 285.997 2103.91 299.877C2133.16 314.092 2142.98 323.226 2142.87 335.941C2142.66 355.404 2119.53 363.997 2097.92 364.335C2060.19 364.916 2038.3 354.127 2020.85 346.013L2007.25 409.581C2024.78 417.627 2057.16 424.647 2090.72 425C2169.57 425 2221.16 386.049 2221.4 325.727ZM2417.31 420.462H2486.73L2426.14 130.303H2362.06C2347.65 130.303 2335.5 138.692 2330.12 151.59L2217.48 420.462H2296.3L2311.95 377.122H2408.25L2417.31 420.462ZM2333.56 317.653L2373.07 208.709L2395.81 317.653H2333.56ZM2017.76 130.303L1955.69 420.462H1880.63L1942.72 130.303H2017.76Z" fill="#1434CB"/>
</g>
<g clip-path="url(#clip5_1906_849)">
<path d="M781.555 284.239L754.942 338.532L743.523 274.438H730.174C727.027 274.448 723.946 275.339 721.279 277.01C718.612 278.68 716.466 281.065 715.085 283.893L688.473 338.504L682.388 303.401C681.014 295.404 676.86 288.15 670.659 282.918C664.457 277.686 656.607 274.812 648.494 274.804H596.074C596.074 274.804 651.19 289.004 655.795 315.055L667.617 381.817H693.162L725.092 317.573L737.419 381.976H763.171L816.395 274.934H796.597C793.478 274.929 790.418 275.79 787.758 277.421C785.099 279.053 782.945 281.39 781.536 284.174L781.555 284.239Z" fill="#140F6D"/>
<path d="M876.584 272.154C868.646 271.961 860.757 273.433 853.423 276.475C846.09 279.517 839.475 284.062 834.004 289.817C828.469 295.492 824.126 302.218 821.232 309.599C818.339 316.98 816.953 324.865 817.156 332.79C816.875 339.723 818.121 346.634 820.808 353.032C823.495 359.429 827.556 365.157 832.703 369.811C843.53 379.345 857.598 384.37 872.016 383.851C885.255 384.584 898.401 381.249 909.691 374.294L913.313 349.592C902.928 355.261 891.298 358.261 879.467 358.325C860.746 358.325 846.912 350.659 846.088 336.188H922.701C923.914 330.097 924.541 323.903 924.573 317.692C924.717 311.65 923.622 305.643 921.356 300.041C919.089 294.438 915.699 289.36 911.394 285.118C906.787 280.692 901.32 277.257 895.333 275.027C889.345 272.797 882.964 271.819 876.584 272.154ZM895.734 317.084H848.316C849.618 310.937 853.032 305.441 857.966 301.551C862.899 297.66 869.04 295.621 875.32 295.789C880.258 295.322 885.18 296.834 889.004 299.993C892.828 303.152 895.242 307.7 895.716 312.638C895.812 313.627 895.831 314.622 895.772 315.614L895.734 317.084Z" fill="#140F6D"/>
<path d="M1017.64 272.153C1011.02 272.043 1004.45 273.333 998.362 275.938C992.276 278.543 986.809 282.405 982.319 287.27L991.268 232.156H975.561C971.576 232.18 967.73 233.622 964.711 236.224C961.692 238.826 959.699 242.418 959.087 246.356L937.793 381.145H967.746L969.87 367.105C974.175 372.479 979.66 376.79 985.9 379.702C992.14 382.614 998.966 384.05 1005.85 383.897C1013.61 384.16 1021.33 382.604 1028.39 379.354C1035.44 376.103 1041.64 371.248 1046.48 365.177C1056.73 353.043 1062.25 337.621 1062.03 321.744C1062.41 308.886 1058.09 296.33 1049.86 286.437C1045.94 281.747 1041 278.02 1035.41 275.543C1029.82 273.067 1023.74 271.907 1017.64 272.153ZM1022.32 348.346C1019.55 351.327 1016.19 353.698 1012.46 355.31C1008.72 356.922 1004.69 357.738 1000.63 357.707C995.213 357.649 989.905 356.187 985.224 353.464C980.543 350.74 976.649 346.848 973.923 342.169L978.397 313.872C981.374 309.251 985.428 305.422 990.212 302.716C994.996 300.009 1000.37 298.505 1005.86 298.334C1009.09 298.204 1012.31 298.71 1015.34 299.824C1018.37 300.939 1021.15 302.639 1023.52 304.829C1025.9 307.018 1027.82 309.654 1029.17 312.585C1030.53 315.516 1031.29 318.686 1031.42 321.913C1031.47 322.848 1031.47 323.785 1031.42 324.721C1031.65 333.458 1028.43 341.935 1022.47 348.328L1022.32 348.346Z" fill="#140F6D"/>
<path d="M1155.4 272.155C1148.78 272.045 1142.21 273.334 1136.12 275.94C1130.04 278.545 1124.57 282.407 1120.08 287.272L1122.21 274.925H1092.15L1068.52 423.69H1084.27C1088.26 423.684 1092.12 422.256 1095.15 419.662C1098.19 417.069 1100.2 413.479 1100.83 409.537L1107.5 367.097C1111.81 372.471 1117.29 376.78 1123.53 379.692C1129.77 382.604 1136.6 384.04 1143.48 383.889C1151.24 384.152 1158.96 382.597 1166.02 379.346C1173.07 376.096 1179.27 371.24 1184.11 365.168C1194.36 353.035 1199.88 337.614 1199.66 321.737C1200.04 308.875 1195.72 296.316 1187.49 286.42C1183.58 281.752 1178.66 278.04 1173.1 275.568C1167.53 273.095 1161.48 271.928 1155.4 272.155ZM1160.08 348.348C1157.32 351.339 1153.96 353.718 1150.23 355.331C1146.49 356.943 1142.46 357.753 1138.39 357.708C1132.95 357.669 1127.62 356.216 1122.92 353.491C1118.22 350.767 1114.3 346.865 1111.56 342.17L1116.09 313.874C1119.07 309.252 1123.12 305.423 1127.91 302.716C1132.69 300.009 1138.06 298.506 1143.56 298.336C1146.78 298.205 1150 298.711 1153.03 299.826C1156.07 300.94 1158.85 302.641 1161.22 304.83C1163.59 307.02 1165.51 309.655 1166.87 312.586C1168.22 315.518 1168.99 318.688 1169.12 321.914C1169.17 322.85 1169.17 323.787 1169.12 324.722C1169.33 333.466 1166.1 341.943 1160.12 348.329L1160.08 348.348Z" fill="#140F6D"/>
<path d="M1319.69 358.569C1314.8 358.569 1312.2 356.238 1312.2 351.539C1312.2 350.21 1312.63 347.533 1313.27 343.236L1316.68 322.578C1317.59 318.386 1318.09 314.117 1318.18 309.829C1318.59 304.298 1317.55 298.756 1315.16 293.752C1312.77 288.747 1309.11 284.454 1304.55 281.299C1294.33 274.841 1282.38 271.648 1270.3 272.144C1257.55 271.878 1244.88 274.196 1233.05 278.959L1229.26 303.895C1239.22 299.088 1250.14 296.613 1261.19 296.659C1279.28 296.659 1288.23 302.416 1288.23 313.91C1288.11 316.481 1287.82 319.041 1287.38 321.576C1276.94 316.141 1265.31 313.388 1253.53 313.564C1242.29 313.318 1231.29 316.829 1222.26 323.542C1218.08 326.753 1214.74 330.925 1212.51 335.704C1210.29 340.484 1209.25 345.729 1209.49 350.996C1209.49 370.372 1224.39 383.973 1247.56 383.973C1254.09 384.117 1260.58 382.949 1266.65 380.537C1272.72 378.125 1278.25 374.519 1282.9 369.932C1285.24 378.637 1292.89 383.112 1305.86 383.112C1311.36 383.341 1316.82 382.024 1321.61 379.311L1325.02 357.604C1323.31 358.211 1321.51 358.536 1319.69 358.569ZM1282.43 350.266C1279.32 353.668 1275.54 356.39 1271.32 358.258C1267.11 360.127 1262.55 361.103 1257.94 361.124C1246.66 361.124 1239.22 356.865 1239.22 348.347C1239.22 338.135 1248.39 332.809 1261.14 332.809C1269.41 332.496 1277.58 334.724 1284.55 339.193L1282.43 350.266Z" fill="#140F6D"/>
<path d="M1421.18 283.986L1389.69 344.829L1370.55 274.822H1339.26L1370.98 377.412C1362.68 391.64 1353.32 398.885 1342.67 398.885C1337.25 398.861 1331.95 397.314 1327.37 394.42L1323.36 420.386C1329.71 423.503 1336.73 425.038 1343.8 424.86C1353.99 424.66 1363.92 421.574 1372.42 415.959C1380.93 410.343 1387.67 402.43 1391.86 393.138L1457.82 274.822H1436.11C1433.02 274.825 1429.99 275.682 1427.36 277.299C1424.72 278.916 1422.58 281.231 1421.18 283.986Z" fill="#140F6D"/>
<path d="M239.629 156.108L274.778 25L309.881 156.108H239.629ZM358.397 241.039L426.261 123.541L308.776 191.267L358.397 241.039ZM393.63 310.225L560.427 275.131L393.667 239.971L393.63 310.225ZM308.739 358.714L426.233 426.58L358.397 309.082L308.739 358.714ZM239.545 393.948L274.666 525L309.787 393.948H239.545ZM191.057 309.12L123.193 426.617L240.687 358.779L191.057 309.12ZM155.833 239.85L25 274.916L156.048 310.075L155.833 239.85ZM240.809 191.295L123.286 123.457L191.104 241.03L240.809 191.295Z" fill="#140F6D"/>
</g>
<g clip-path="url(#clip6_1906_849)">
<path d="M3916.59 498.728H3906.89V387.423H3916.59V498.728ZM3987.35 387.423C3995.86 387.302 4004.32 388.619 4012.39 391.318C4019.4 393.675 4025.85 397.465 4031.31 402.449C4036.55 407.34 4040.65 413.325 4043.32 419.979C4048.94 434.863 4048.94 451.287 4043.32 466.171C4040.65 472.825 4036.55 478.811 4031.31 483.702C4025.85 488.686 4019.4 492.477 4012.39 494.833C4004.32 497.533 3995.86 498.85 3987.35 498.728H3946.72V387.423H3987.35ZM3956.42 396.645V489.506H3987.35C3994.64 489.635 4001.9 488.519 4008.81 486.206C4014.64 484.234 4019.97 481.05 4024.48 476.865C4028.75 472.782 4032.04 467.779 4034.1 462.235C4038.44 449.831 4038.44 436.319 4034.1 423.915C4032.04 418.363 4028.75 413.349 4024.48 409.247C4019.99 405.043 4014.65 401.857 4008.81 399.905C4001.89 397.619 3994.64 396.517 3987.35 396.645H3956.42ZM4160.27 386.151C4164.92 386.138 4169.57 386.672 4174.1 387.741C4178.44 388.761 4182.65 390.295 4186.62 392.312C4190.44 394.247 4193.99 396.665 4197.2 399.507C4200.33 402.289 4203.04 405.501 4205.27 409.048L4197.16 414.454C4195.25 411.54 4192.96 408.893 4190.36 406.584C4187.73 404.246 4184.82 402.243 4181.69 400.62C4178.47 398.951 4175.05 397.683 4171.52 396.844C4167.83 395.963 4164.05 395.523 4160.27 395.533C4153.94 395.477 4147.67 396.637 4141.78 398.95C4136.22 401.142 4131.16 404.442 4126.92 408.651C4122.63 412.944 4119.25 418.054 4116.98 423.677C4112.15 436.16 4112.15 449.992 4116.98 462.475C4119.25 468.098 4122.63 473.207 4126.92 477.501C4131.16 481.709 4136.22 485.009 4141.78 487.2C4147.67 489.514 4153.94 490.675 4160.27 490.619C4164.04 490.63 4167.8 490.203 4171.48 489.347C4175 488.53 4178.4 487.274 4181.61 485.61C4184.74 483.988 4187.65 481.985 4190.28 479.647C4192.9 477.321 4195.19 474.645 4197.08 471.697L4205.03 477.501C4202.71 480.978 4199.95 484.133 4196.8 486.882C4193.61 489.664 4190.08 492.041 4186.3 493.958C4182.38 495.949 4178.23 497.457 4173.94 498.449C4161.85 501.203 4149.21 500.275 4137.65 495.786C4130.9 493.12 4124.75 489.133 4119.56 484.059C4114.4 478.94 4110.33 472.828 4107.6 466.091C4101.82 451.305 4101.82 434.886 4107.6 420.099C4110.32 413.348 4114.39 407.221 4119.56 402.091C4124.75 397.017 4130.9 393.031 4137.65 390.364C4144.84 387.513 4152.52 386.082 4160.27 386.151ZM4235.08 436.873C4236.5 434.514 4238.25 432.372 4240.29 430.514C4242.23 428.744 4244.41 427.259 4246.77 426.101C4249.09 424.963 4251.55 424.109 4254.08 423.558C4256.59 423.005 4259.15 422.725 4261.71 422.722C4266.07 422.672 4270.4 423.385 4274.51 424.829C4278.21 426.131 4281.61 428.174 4284.49 430.831C4287.31 433.485 4289.51 436.729 4290.93 440.332C4292.49 444.32 4293.26 448.573 4293.2 452.854V498.728H4284.13V455.638C4284.18 452.18 4283.64 448.739 4282.54 445.46C4281.57 442.585 4279.97 439.964 4277.85 437.789C4275.72 435.652 4273.14 434.01 4270.3 432.978C4267.04 431.816 4263.59 431.25 4260.12 431.309C4256.77 431.283 4253.44 431.889 4250.3 433.097C4247.34 434.238 4244.63 435.969 4242.36 438.186C4240.07 440.427 4238.26 443.103 4237.03 446.056C4235.7 449.241 4235.04 452.663 4235.08 456.114V498.728H4226.02V384.242H4235.08L4235.08 436.873ZM4347.1 422.722C4351.87 422.68 4356.6 423.641 4360.97 425.545C4365.16 427.372 4368.93 430.052 4372.02 433.415C4375.22 436.939 4377.72 441.041 4379.38 445.5C4381.22 450.42 4382.17 455.631 4382.16 460.885C4382.16 461.573 4382.15 462.224 4382.12 462.832C4382.1 463.442 4382.06 464.038 4382 464.622H4319.27C4319.51 468.638 4320.49 472.575 4322.18 476.228C4323.7 479.491 4325.84 482.422 4328.5 484.854C4331.1 487.215 4334.14 489.039 4337.44 490.221C4340.9 491.455 4344.54 492.074 4348.21 492.049C4353.06 492.133 4357.86 491.156 4362.29 489.187C4366.45 487.262 4370.24 484.625 4373.49 481.396L4378.35 487.597C4376.14 489.837 4373.7 491.836 4371.07 493.561C4368.7 495.104 4366.17 496.383 4363.52 497.376C4360.99 498.32 4358.36 498.987 4355.69 499.363C4353.03 499.735 4350.34 499.921 4347.66 499.92C4342.49 499.975 4337.35 499.016 4332.55 497.097C4328.08 495.307 4324.02 492.614 4320.63 489.187C4317.23 485.705 4314.58 481.566 4312.83 477.023C4310.93 472.024 4309.98 466.71 4310.05 461.361C4310 456.047 4310.95 450.772 4312.87 445.818C4314.64 441.262 4317.28 437.101 4320.66 433.575C4324 430.138 4328.01 427.419 4332.43 425.584C4337.08 423.654 4342.07 422.68 4347.1 422.722ZM4346.94 430.752C4343.36 430.708 4339.81 431.37 4336.49 432.7C4333.4 433.957 4330.58 435.792 4328.18 438.106C4325.75 440.473 4323.77 443.261 4322.34 446.335C4320.79 449.646 4319.81 453.194 4319.43 456.83H4372.94C4372.67 453.168 4371.79 449.579 4370.32 446.216C4368.98 443.146 4367.08 440.355 4364.71 437.987C4362.37 435.667 4359.6 433.833 4356.55 432.591C4353.5 431.349 4350.23 430.724 4346.94 430.752ZM4434.31 422.722C4439.61 422.671 4444.87 423.685 4449.78 425.703C4454.42 427.621 4458.57 430.571 4461.9 434.33L4456.02 440.452C4453.19 437.599 4449.86 435.295 4446.2 433.654C4442.37 431.998 4438.24 431.171 4434.07 431.229C4430.16 431.196 4426.27 431.968 4422.67 433.495C4419.22 434.954 4416.09 437.089 4413.48 439.776C4410.84 442.521 4408.78 445.764 4407.4 449.316C4404.49 457.081 4404.49 465.64 4407.4 473.405C4408.75 476.925 4410.8 480.135 4413.42 482.841C4416.04 485.547 4419.19 487.692 4422.67 489.148C4426.27 490.675 4430.16 491.446 4434.07 491.414C4438.3 491.461 4442.5 490.593 4446.36 488.869C4450.03 487.218 4453.38 484.931 4456.26 482.112L4461.9 488.313C4458.54 492.056 4454.38 495.003 4449.74 496.939C4439.82 500.9 4428.77 500.914 4418.85 496.978C4414.3 495.131 4410.18 492.378 4406.74 488.885C4403.3 485.393 4400.6 481.235 4398.82 476.666C4395.05 466.796 4395.05 455.886 4398.82 446.017C4400.59 441.437 4403.28 437.269 4406.73 433.769C4410.17 430.269 4414.3 427.511 4418.85 425.664C4423.76 423.661 4429.01 422.661 4434.31 422.722ZM4489.17 455.478H4501.33L4532.82 423.915H4544.26L4508.65 459.215L4544.9 498.728H4533.37L4501.33 463.667H4489.17V498.728H4480.1V384.242H4489.17L4489.17 455.478Z" fill="black"/>
<path d="M4075.74 69.9551H3994.07V216.708H4075.74V69.9551Z" fill="#FF5F00"/>
<path d="M3999.26 143.331C3999.25 129.197 4002.45 115.246 4008.63 102.534C4014.8 89.8209 4023.79 78.68 4034.91 69.9541C4021.14 59.132 4004.61 52.4019 3987.19 50.533C3969.78 48.6642 3952.19 51.7319 3936.44 59.3857C3920.69 67.0395 3907.41 78.9704 3898.12 93.8149C3888.83 108.659 3883.9 125.818 3883.9 143.331C3883.9 160.843 3888.83 178.002 3898.12 192.846C3907.41 207.691 3920.69 219.622 3936.44 227.275C3952.19 234.929 3969.78 237.997 3987.19 236.128C4004.61 234.259 4021.14 227.529 4034.91 216.707C4023.79 207.981 4014.8 196.84 4008.63 184.128C4002.45 171.415 3999.25 157.464 3999.26 143.331Z" fill="#EB001B"/>
<path d="M4185.91 143.33C4185.91 160.843 4180.98 178.001 4171.69 192.846C4162.4 207.69 4149.12 219.621 4133.37 227.275C4117.62 234.929 4100.03 237.997 4082.62 236.128C4065.21 234.259 4048.67 227.529 4034.91 216.707C4046.01 207.972 4054.99 196.83 4061.17 184.119C4067.34 171.408 4070.55 157.462 4070.55 143.33C4070.55 129.199 4067.34 115.253 4061.17 102.542C4054.99 89.8315 4046.01 78.6887 4034.91 69.9541C4048.67 59.132 4065.21 52.4019 4082.62 50.533C4100.03 48.6642 4117.62 51.732 4133.37 59.3858C4149.12 67.0397 4162.4 78.9707 4171.69 93.8151C4180.98 108.66 4185.91 125.818 4185.91 143.33Z" fill="#F79E1B"/>
<path d="M4177.01 201.163V198.159H4178.22V197.547H4175.13V198.159H4176.34V201.163H4177.01ZM4183 201.163V197.541H4182.05L4180.96 200.033L4179.88 197.541H4178.93V201.163H4179.6V198.431L4180.62 200.787H4181.31L4182.33 198.425V201.163H4183Z" fill="#F79E1B"/>
</g>
<defs>
<clipPath id="clip0_1906_849">
<rect width="1033.67" height="400" fill="white" transform="translate(6396.22 75)"/>
</clipPath>
<clipPath id="clip1_1906_849">
<rect width="1651.32" height="350" fill="white" transform="translate(4644.9 100)"/>
</clipPath>
<clipPath id="clip2_1906_849">
<rect width="647.173" height="400" fill="white" transform="translate(3136.73 75)"/>
</clipPath>
<clipPath id="clip3_1906_849">
<rect width="450" height="450" fill="white" transform="translate(2586.73 50)"/>
</clipPath>
<clipPath id="clip4_1906_849">
<rect width="928.915" height="300" fill="white" transform="translate(1557.82 125)"/>
</clipPath>
<clipPath id="clip5_1906_849">
<rect width="1432.82" height="500" fill="white" transform="translate(25 25)"/>
</clipPath>
<clipPath id="clip6_1906_849">
<rect width="660.997" height="450" fill="white" transform="translate(3883.9 50)"/>
</clipPath>
</defs>
</svg>
